<svg width="420" height="300" viewBox="0 0 320 200" fill="none" xmlns="http://www.w3.org/2000/svg">
<g clip-path="url(#clip0_278_249)">
<g clip-path="url(#clip1_278_249)">
<g clip-path="url(#clip2_278_249)">
<mask id="mask0_278_249" style="mask-type:luminance" maskUnits="userSpaceOnUse" x="0" y="0" width="320" height="200">
<path d="M319.228 0.322571H0.260559V199.677H319.228V0.322571Z" fill="white"/>
<g clip-path="url(#clip3_278_249)">
<g clip-path="url(#clip4_278_249)">
<g clip-path="url(#clip5_278_249)">
<g clip-path="url(#clip6_278_249)">
<g clip-path="url(#clip7_278_249)">
<g clip-path="url(#clip8_278_249)">
<g clip-path="url(#clip9_278_249)">
<path d="M29.5306 107.886C29.3716 107.886 29.3489 107.784 29.4624 107.579C29.5987 107.307 29.6668 107.057 29.6668 106.83C29.6668 106.353 29.383 105.971 28.8152 105.685C28.2475 105.404 27.4709 105.206 26.4853 105.093C25.4952 104.979 24.387 104.922 23.1607 104.922C21.6392 104.922 20.0269 104.99 18.3237 105.127C16.6206 105.263 14.9696 105.422 13.3709 105.603C11.7677 105.785 10.3597 105.967 9.14707 106.148C7.92988 106.33 7.04877 106.478 6.50376 106.591C6.14042 106.659 5.77253 106.539 5.40011 106.23C5.02314 105.926 4.83466 105.581 4.83466 105.195C4.83466 104.831 5.00497 104.525 5.34561 104.275C5.54999 104.139 5.88608 103.934 6.35388 103.662C6.81714 103.389 7.21909 103.174 7.55972 103.015L7.66191 102.947C8.79736 101.811 10.0804 100.607 11.5111 99.3358C12.9417 98.0641 14.4564 96.7969 16.0551 95.5343C17.6584 94.2763 19.2843 93.084 20.933 91.9577C22.5771 90.8359 24.1826 89.848 25.7495 88.9942C27.3164 88.1449 28.7812 87.5045 30.1437 87.073C29.7122 86.6869 28.9742 86.4031 27.9296 86.2214C26.885 86.0397 25.7155 85.9489 24.4211 85.9489C23.0358 85.9489 21.6052 86.0443 20.1291 86.235C18.653 86.4303 17.2791 86.7028 16.0074 87.0526C14.7357 87.4068 13.7025 87.8337 12.9077 88.3333C12.1129 88.8329 11.7154 89.3893 11.7154 90.0024C11.7154 90.3658 11.9085 90.7745 12.2945 91.2287C12.3172 91.2514 12.3286 91.2855 12.3286 91.3309C12.3286 91.3536 12.3059 91.365 12.2605 91.365C12.1015 91.365 11.9766 91.3196 11.8858 91.2287C11.4316 90.7973 11.2045 90.2863 11.2045 89.6959C11.2045 89.1282 11.4043 88.5377 11.804 87.9246C12.1991 87.3114 12.7442 86.7324 13.4391 86.1874C14.1294 85.6423 14.9288 85.1995 15.8371 84.8589C16.9271 84.4501 18.1421 84.1504 19.4819 83.9596C20.8217 83.7643 22.1502 83.6667 23.4673 83.6667C24.9888 83.6667 26.4422 83.7916 27.8274 84.0414C28.3724 84.1322 28.9356 84.2957 29.5169 84.5319C30.0937 84.7726 30.5706 85.1019 30.9476 85.5197C31.32 85.9421 31.4835 86.4826 31.4381 87.1411C31.5062 87.2093 31.5403 87.2887 31.5403 87.3796C31.5403 87.4931 31.4835 87.5953 31.37 87.6861C31.3473 87.8451 31.3132 88.0041 31.2678 88.163C31.2224 88.322 31.1656 88.4923 31.0975 88.674C31.0294 88.8556 30.9612 88.9283 30.8931 88.892C30.825 88.8602 30.825 88.7875 30.8931 88.674C30.9839 88.4015 31.018 88.1517 30.9953 87.9246L30.8931 87.9927C28.713 88.9692 26.5784 90.0819 24.4892 91.3309C22.4 92.5799 20.4129 93.8743 18.5281 95.2141C16.6433 96.554 14.9129 97.8529 13.3369 99.111C11.7563 100.374 10.387 101.516 9.22882 102.538C9.84196 102.333 10.7685 102.174 12.0084 102.061C13.2438 101.947 14.5995 101.891 16.0756 101.891C17.3245 101.891 18.6031 101.941 19.9111 102.04C21.2146 102.145 22.4749 102.304 23.6921 102.517C24.9048 102.735 25.988 103.019 26.9418 103.369C27.8955 103.723 28.6563 104.155 29.224 104.663C29.7917 105.177 30.0756 105.774 30.0756 106.455C30.0756 106.841 29.9961 107.204 29.8371 107.545C29.7463 107.772 29.6441 107.886 29.5306 107.886ZM33.0391 106.591C32.1534 106.591 31.4881 106.369 31.043 105.924C30.6024 105.483 30.3821 104.911 30.3821 104.207C30.3821 103.775 30.4389 103.355 30.5525 102.947C30.666 102.538 30.7909 102.174 30.9272 101.856C30.7682 102.015 30.6138 102.156 30.4639 102.279C30.3186 102.406 30.2005 102.504 30.1096 102.572C30.0188 102.64 29.9393 102.674 29.8712 102.674C29.7804 102.674 29.7349 102.617 29.7349 102.504C29.7349 102.345 29.8485 102.163 30.0756 101.959C30.8704 101.3 31.4949 100.714 31.9491 100.201C32.4032 99.6923 32.8801 99.2223 33.3797 98.7908C34.22 98.0641 35.117 97.4964 36.0707 97.0876C37.0245 96.6789 37.9783 96.4745 38.932 96.4745C39.9312 96.4745 40.7147 96.7129 41.2824 97.1898C41.8501 97.6667 42.134 98.3707 42.134 99.3017C42.134 99.824 41.9796 100.426 41.6707 101.107C41.3664 101.788 40.885 102.492 40.2265 103.219C39.9539 103.514 39.6474 103.803 39.3067 104.084C38.9661 104.37 38.6709 104.582 38.4211 104.718C39.5338 104.604 40.5784 104.211 41.5549 103.539C42.5314 102.872 43.4057 102.208 44.1778 101.55C44.2913 101.482 44.3708 101.448 44.4162 101.448C44.5298 101.448 44.5866 101.504 44.5866 101.618C44.5866 101.709 44.5298 101.811 44.4162 101.925C43.4398 102.856 42.3883 103.639 41.262 104.275C40.1402 104.911 38.898 105.217 37.5354 105.195C36.7406 105.626 35.9617 105.967 35.1987 106.217C34.4402 106.466 33.7204 106.591 33.0391 106.591ZM34.5719 105.638C34.8899 105.638 35.2305 105.581 35.5938 105.467C35.9572 105.354 36.3205 105.206 36.6839 105.024C36.5476 105.024 36.4159 104.956 36.2887 104.82C36.1661 104.684 36.1048 104.502 36.1048 104.275C36.1048 103.821 36.2751 103.355 36.6157 102.878C36.9564 102.401 37.3765 101.993 37.8761 101.652C38.3757 101.311 38.8639 101.141 39.3408 101.141C39.6133 101.141 39.8676 101.214 40.1038 101.359C40.3445 101.509 40.4762 101.709 40.499 101.959C40.885 101.527 41.1507 101.062 41.296 100.562C41.4459 100.062 41.5209 99.597 41.5209 99.1655C41.5209 98.5751 41.3324 98.1254 40.9554 97.8166C40.583 97.5123 40.0788 97.3601 39.443 97.3601C38.8299 97.3601 38.1531 97.5759 37.4128 98.0073C36.6771 98.4388 35.9844 98.9952 35.335 99.6764C34.69 100.358 34.1564 101.096 33.734 101.891C33.3161 102.685 33.1072 103.446 33.1072 104.173C33.1072 105.149 33.5955 105.638 34.5719 105.638ZM54.1924 107.613C53.8972 107.5 53.6065 107.295 53.3204 107C53.0388 106.705 52.898 106.194 52.898 105.467C52.898 104.854 52.9979 104.211 53.1978 103.539C53.4067 102.872 53.6701 102.208 53.988 101.55C53.3976 102.299 52.7549 103.037 52.06 103.764C51.3697 104.491 50.6771 105.088 49.9822 105.556C49.2873 106.019 48.6469 106.251 48.061 106.251C47.5614 106.251 47.1458 106.114 46.8143 105.842C46.4873 105.569 46.3238 105.149 46.3238 104.582C46.3238 104.173 46.4033 103.73 46.5622 103.253C46.7212 102.776 47.0051 102.243 47.4138 101.652C47.8226 101.062 48.2699 100.476 48.7559 99.8944C49.2464 99.3176 49.6733 98.8248 50.0367 98.4161C50.2865 98.1209 50.4114 97.8824 50.4114 97.7008C50.4114 97.4737 50.2865 97.3601 50.0367 97.3601C49.7596 97.3601 49.3736 97.5418 48.8785 97.9051C48.3562 98.2912 47.7999 98.7613 47.2094 99.3154C46.619 99.874 46.0626 100.408 45.5403 100.916C45.018 101.43 44.5752 101.834 44.2119 102.129C44.1437 102.197 44.0756 102.231 44.0075 102.231C43.8939 102.231 43.8372 102.163 43.8372 102.027C43.8372 101.913 43.9394 101.766 44.1437 101.584C45.1429 100.721 45.9718 99.9308 46.6304 99.2132C47.2889 98.5001 47.9361 97.8938 48.572 97.3942C48.9126 97.1217 49.2623 96.9218 49.6211 96.7947C49.989 96.672 50.3296 96.6107 50.643 96.6107C51.1926 96.6107 51.6467 96.7697 52.0055 97.0876C52.3734 97.4055 52.5574 97.8484 52.5574 98.4161C52.5574 98.8476 52.4438 99.3017 52.2167 99.7786C51.9624 100.346 51.6263 100.907 51.2085 101.461C50.7906 102.02 50.3887 102.56 50.0026 103.083C49.7074 103.514 49.4917 103.866 49.3554 104.139C49.2192 104.411 49.151 104.616 49.151 104.752C49.151 104.934 49.2419 105.024 49.4236 105.024C49.6052 105.024 49.8664 104.922 50.207 104.718C50.5476 104.513 50.8996 104.252 51.263 103.934C51.5128 103.707 51.733 103.496 51.9238 103.301C52.1191 103.11 52.2599 102.969 52.3462 102.878C52.873 102.333 53.3976 101.747 53.9199 101.121C54.4422 100.498 54.8964 99.9262 55.2824 99.4039C55.5777 99.0179 55.8093 98.7227 55.9773 98.5183C56.1499 98.3139 56.3384 98.0982 56.5428 97.8711C56.9243 97.4396 57.3331 97.2125 57.7691 97.1898C58.0143 97.1898 58.3027 97.2398 58.6343 97.3397C58.9658 97.4441 59.2906 97.644 59.6085 97.9392C59.3814 98.2571 59.0453 98.6931 58.6002 99.2472C58.1597 99.8059 57.6828 100.419 57.1695 101.087C56.6609 101.759 56.1726 102.447 55.7048 103.151C55.2416 103.855 54.8601 104.513 54.5603 105.127C54.2696 105.74 54.1243 106.273 54.1243 106.728C54.1243 107.045 54.2128 107.295 54.39 107.477C54.4854 107.568 54.4854 107.62 54.39 107.634C54.3037 107.643 54.2378 107.636 54.1924 107.613ZM66.9934 106.319C66.4257 106.319 65.9783 106.16 65.6513 105.842C65.3198 105.524 65.154 105.093 65.154 104.547C65.154 104.207 65.2335 103.821 65.3924 103.389C65.5514 102.958 65.8012 102.515 66.1418 102.061C66.6641 101.357 67.1637 100.737 67.6406 100.201C68.1175 99.6696 68.4695 99.1882 68.6966 98.7567C68.9237 98.348 69.0372 98.03 69.0372 97.8029C69.0372 97.4623 68.8328 97.292 68.4241 97.292C68.0607 97.292 67.5452 97.4896 66.8776 97.8847C66.2054 98.2844 65.506 98.927 64.7793 99.8127C64.3705 100.312 63.905 100.896 63.3827 101.564C62.8604 102.236 62.4403 102.856 62.1224 103.423C61.9861 103.673 61.8567 103.928 61.734 104.186C61.6069 104.45 61.4184 104.888 61.1686 105.501C61.1005 105.66 60.9142 105.831 60.6099 106.012C60.3011 106.194 60.0558 106.285 59.8742 106.285C59.7379 106.285 59.6698 106.228 59.6698 106.114C59.6698 106.024 59.7039 105.91 59.772 105.774C59.8855 105.569 60.1421 104.922 60.5418 103.832C60.937 102.742 61.4411 101.459 62.0542 99.983C61.7136 100.346 61.3389 100.737 60.9301 101.155C60.5214 101.577 60.0672 101.981 59.5676 102.367C59.4768 102.458 59.3746 102.504 59.261 102.504C59.1248 102.504 59.0567 102.447 59.0567 102.333C59.0567 102.243 59.1588 102.118 59.3632 101.959C59.8855 101.504 60.4078 101.023 60.9301 100.514C61.4524 100.001 62.0202 99.3585 62.6333 98.5864C62.8377 98.0868 63.201 97.3647 63.7233 96.42C64.2456 95.4798 64.8701 94.4307 65.5968 93.2725C66.3235 92.1144 67.1297 90.9562 68.0153 89.7981C68.901 88.6399 69.8093 87.6067 70.7404 86.6983C71.5806 85.8808 72.4617 85.2563 73.3837 84.8248C74.3011 84.3934 75.1345 84.1776 75.8839 84.1776C76.5425 84.1776 77.0762 84.3366 77.4849 84.6545C77.8937 84.9724 78.0981 85.4834 78.0981 86.1874C78.0981 86.8913 77.905 87.6407 77.519 88.4355C77.1329 89.2303 76.7242 89.8662 76.2927 90.3431C75.3162 91.4331 74.1649 92.4323 72.8387 93.3407C71.5079 94.249 70.1159 95.0211 68.6625 95.657C68.6171 95.6797 68.5717 95.6956 68.5263 95.7046C68.4808 95.7183 68.4354 95.7251 68.39 95.7251C68.231 95.7251 68.1516 95.6683 68.1516 95.5548C68.1516 95.4185 68.2765 95.305 68.5263 95.2141C69.3892 94.8281 70.2703 94.3512 71.1696 93.7835C72.0643 93.2158 72.8977 92.6026 73.6698 91.9441C74.4419 91.2855 75.0891 90.6269 75.6114 89.9684C76.2246 89.1963 76.622 88.565 76.8036 88.0745C76.9853 87.5885 77.0762 87.1752 77.0762 86.8346C77.0762 86.3804 76.8264 86.1533 76.3268 86.1533C76.0997 86.1533 75.7704 86.26 75.3389 86.4735C74.9075 86.6915 74.3965 87.0389 73.8061 87.5158C72.8977 88.2425 71.9621 89.1282 70.9993 90.1728C70.0319 91.2174 69.0894 92.3528 68.172 93.5791C67.25 94.8054 66.3803 96.0544 65.5627 97.3261C64.7452 98.5978 64.0072 99.8354 63.3486 101.039C63.6211 100.653 63.905 100.26 64.2002 99.8604C64.4954 99.4652 64.7907 99.1087 65.0859 98.7908C65.7671 98.0414 66.437 97.4964 67.0956 97.1557C67.7542 96.8151 68.3446 96.6448 68.8669 96.6448C69.4573 96.6448 69.9342 96.8197 70.2976 97.1694C70.6609 97.5236 70.8426 97.996 70.8426 98.5864C70.8426 98.9043 70.7926 99.2154 70.6927 99.5197C70.5882 99.8286 70.4679 100.108 70.3316 100.358C70.1499 100.744 69.9115 101.198 69.6163 101.72C69.3211 102.243 69.0372 102.731 68.7647 103.185C68.2424 104.025 67.9812 104.627 67.9812 104.99C67.9812 105.195 68.0721 105.297 68.2538 105.297C68.4808 105.297 68.8555 105.138 69.3778 104.82C69.7866 104.57 70.2476 104.245 70.7608 103.846C71.2695 103.451 71.7804 103.037 72.2937 102.606C72.8023 102.174 73.2452 101.793 73.6221 101.461C73.9946 101.134 74.2375 100.914 74.3511 100.801C74.4873 100.664 74.5895 100.596 74.6577 100.596C74.7258 100.596 74.7598 100.63 74.7598 100.698C74.7598 100.812 74.6804 100.971 74.5214 101.175C73.931 101.788 73.1929 102.481 72.3073 103.253C71.4216 104.025 70.4225 104.775 69.3097 105.501C68.8782 105.796 68.4649 106.005 68.0698 106.128C67.6701 106.255 67.3113 106.319 66.9934 106.319ZM80.9594 95.8613C80.6414 95.8613 80.403 95.7591 80.244 95.5548C80.0851 95.3504 80.0056 95.1347 80.0056 94.9076C80.0056 94.4534 80.2213 94.0038 80.6528 93.5587C81.0843 93.1181 81.5385 92.8978 82.0153 92.8978C82.3333 92.8978 82.5717 93 82.7307 93.2044C82.8896 93.4088 82.9691 93.6245 82.9691 93.8516C82.9691 94.3285 82.7602 94.7827 82.3423 95.2141C81.92 95.6456 81.459 95.8613 80.9594 95.8613ZM75.7477 106.319C74.8166 106.319 74.1876 106.119 73.8606 105.719C73.529 105.324 73.3633 104.877 73.3633 104.377C73.3633 103.968 73.4314 103.576 73.5676 103.199C73.7039 102.826 73.8174 102.56 73.9083 102.401C74.0445 102.174 74.233 101.913 74.4737 101.618C74.7099 101.323 74.9756 101.005 75.2708 100.664C74.8166 101.05 74.392 101.425 73.9968 101.788C73.5972 102.152 73.2724 102.424 73.0226 102.606C72.9545 102.674 72.8864 102.708 72.8182 102.708C72.7274 102.708 72.682 102.651 72.682 102.538C72.682 102.356 72.8069 102.174 73.0567 101.993C73.6471 101.493 74.2216 100.948 74.7803 100.358C75.3344 99.7673 75.8612 99.2154 76.3608 98.7022C76.8604 98.1935 77.3032 97.837 77.6893 97.6326C78.0981 97.4055 78.4273 97.2579 78.6771 97.1898C78.9269 97.1217 79.1313 97.0876 79.2903 97.0876C79.5401 97.0876 79.7217 97.1262 79.8353 97.2034C79.9488 97.2852 79.9715 97.3715 79.9034 97.4623C79.5174 97.8484 79.1381 98.3412 78.7657 98.9407C78.3887 99.5447 78.0413 100.176 77.7234 100.835C77.4054 101.493 77.1511 102.118 76.9603 102.708C76.765 103.298 76.6674 103.798 76.6674 104.207C76.6674 104.775 76.8945 105.058 77.3487 105.058C77.7801 105.058 78.3433 104.859 79.0382 104.459C79.7286 104.064 80.4552 103.56 81.2183 102.947C81.9767 102.333 82.6852 101.732 83.3438 101.141C83.4346 101.05 83.5141 101.005 83.5823 101.005C83.6958 101.005 83.7594 101.062 83.773 101.175C83.7821 101.289 83.7526 101.368 83.6844 101.414C82.935 102.118 82.0903 102.849 81.1501 103.607C80.2054 104.37 79.263 105.013 78.3229 105.535C77.3782 106.058 76.5198 106.319 75.7477 106.319ZM87.8402 106.319C86.8637 106.319 86.2051 106.13 85.8645 105.753C85.5239 105.381 85.3535 104.968 85.3535 104.513C85.3535 103.923 85.5806 103.298 86.0348 102.64C86.3073 102.254 86.6139 101.816 86.9545 101.325C87.2952 100.839 87.6131 100.38 87.9083 99.9489C88.2035 99.5175 88.4079 99.2109 88.5214 99.0292C88.6804 98.8021 88.7758 98.6477 88.8076 98.566C88.8439 98.4888 88.8621 98.4047 88.8621 98.3139C88.8621 98.1776 88.7758 98.0459 88.6032 97.9188C88.4351 97.7961 88.1581 97.7348 87.772 97.7348C87.6585 97.7348 87.5608 97.7394 87.4791 97.7484C87.4019 97.7621 87.3179 97.7689 87.227 97.7689C87.0454 97.7689 86.9432 97.7575 86.9205 97.7348L86.8183 97.8711C86.1824 98.7113 85.5012 99.5356 84.7745 100.344C84.0478 101.148 83.253 101.891 82.39 102.572C82.2992 102.64 82.2311 102.674 82.1857 102.674C82.0948 102.674 82.0494 102.629 82.0494 102.538C82.0494 102.356 82.1857 102.152 82.4582 101.925C83.1621 101.334 83.8548 100.669 84.536 99.9285C85.2173 99.1927 85.8304 98.4161 86.3754 97.5986C86.1711 97.4623 86.0689 97.1898 86.0689 96.781C86.0689 96.1679 86.2619 95.5094 86.648 94.8054C86.9205 94.3285 87.2202 93.9697 87.5472 93.729C87.8788 93.4928 88.1694 93.3747 88.4192 93.3747C88.8961 93.3747 89.1346 93.6586 89.1346 94.2263C89.1346 94.5896 88.9983 95.0438 88.7258 95.5888C88.6123 95.8613 88.3897 96.2065 88.0582 96.6244C87.7312 97.0467 87.4087 97.3488 87.0908 97.5304C87.5677 97.3715 88.174 97.2625 88.9098 97.2034C89.6501 97.1489 90.27 97.1217 90.7696 97.1217C91.0648 97.1217 91.4282 97.2057 91.8596 97.3738C92.2911 97.5463 92.5068 97.8484 92.5068 98.2798C92.5068 98.5751 92.3706 98.893 92.0981 99.2336C92.03 99.3244 91.8483 99.5402 91.5531 99.8808C91.2579 100.221 90.9331 100.63 90.5789 101.107C90.2291 101.584 89.9067 102.061 89.6115 102.538C89.3162 102.969 89.0823 103.367 88.9098 103.73C88.7417 104.093 88.6577 104.4 88.6577 104.65C88.6577 105.013 88.8621 105.195 89.2708 105.195C89.7477 105.195 90.3836 104.968 91.1784 104.513C91.9732 104.059 92.8293 103.473 93.7467 102.756C94.6687 102.043 95.5158 101.3 96.2879 100.528C96.3787 100.437 96.4582 100.392 96.5263 100.392C96.6171 100.392 96.6626 100.449 96.6626 100.562C96.6626 100.698 96.6058 100.823 96.4922 100.937C95.6974 101.732 94.8163 102.542 93.8489 103.369C92.8861 104.2 91.8869 104.899 90.8514 105.467C89.8204 106.035 88.8166 106.319 87.8402 106.319ZM103.843 107.613C103.661 107.613 103.571 107.511 103.571 107.307C103.571 107.261 103.577 107.216 103.591 107.17C103.6 107.125 103.616 107.068 103.639 107C103.775 106.478 104.077 105.774 104.545 104.888C105.008 104.002 105.587 103.008 106.282 101.904C106.972 100.805 107.715 99.6764 108.51 98.5183C108.374 98.0414 108.317 97.6553 108.339 97.3601C108.362 97.133 108.517 96.8651 108.803 96.5562C109.084 96.2519 109.402 95.9908 109.757 95.7728C110.106 95.5593 110.383 95.4753 110.588 95.5207C111.473 94.3171 112.302 93.2158 113.074 92.2166C113.846 91.2174 114.5 90.4226 115.036 89.8321C115.568 89.2417 115.902 88.9465 116.038 88.9465C116.219 88.9465 116.356 89.026 116.447 89.1849C116.537 89.3439 116.583 89.4915 116.583 89.6277C116.583 89.6277 116.317 89.9616 115.786 90.6292C115.25 91.3014 114.557 92.1893 113.708 93.293C112.854 94.3921 111.95 95.6002 110.996 96.9173C111.019 96.94 111.03 96.9741 111.03 97.0195C111.03 97.0649 111.042 97.1103 111.065 97.1557L112.291 97.0536C113.449 96.9627 114.675 96.7515 115.97 96.42C117.264 96.093 118.536 95.6751 119.785 95.1664C121.034 94.6532 122.146 94.0673 123.123 93.4088C124.213 92.6594 125.117 91.8578 125.834 91.0039C126.547 90.1546 126.904 89.378 126.904 88.674C126.904 87.97 126.484 87.3841 125.644 86.9163C124.803 86.453 123.384 86.2214 121.386 86.2214C120.704 86.2214 119.864 86.3009 118.865 86.4599C117.866 86.6188 116.794 86.8346 115.649 87.1071C114.5 87.3796 113.365 87.702 112.243 88.0745C111.117 88.4514 110.095 88.8556 109.177 89.2871C108.255 89.7186 107.522 90.1614 106.977 90.6156C106.614 90.9335 106.489 91.1947 106.602 91.399C106.648 91.4672 106.67 91.5353 106.67 91.6034C106.67 91.6488 106.648 91.6715 106.602 91.6715C106.534 91.6715 106.443 91.6375 106.33 91.5694C105.966 91.3423 105.701 91.0516 105.533 90.6973C105.36 90.3476 105.274 90.0252 105.274 89.7299C105.274 89.4574 105.319 89.2758 105.41 89.1849C105.819 88.5945 106.496 88.0268 107.44 87.4818C108.38 86.9367 109.486 86.4372 110.758 85.983C112.03 85.5288 113.381 85.1314 114.811 84.7908C116.242 84.4501 117.646 84.189 119.022 84.0073C120.393 83.8256 121.647 83.7348 122.782 83.7348C123.713 83.7348 124.497 83.8029 125.133 83.9392C126.018 84.1208 126.768 84.5569 127.381 85.2472C127.994 85.9421 128.301 86.7891 128.301 87.7883C128.301 88.7194 127.933 89.7413 127.197 90.854C126.457 91.9668 125.189 93.0454 123.395 94.09C122.396 94.6805 121.249 95.23 119.955 95.7387C118.661 96.2519 117.35 96.6789 116.024 97.0195C114.693 97.3601 113.46 97.5645 112.325 97.6326C112.143 97.6553 111.962 97.6667 111.78 97.6667C111.598 97.6667 111.417 97.6667 111.235 97.6667C111.598 98.5751 112.173 99.5107 112.958 100.474C113.74 101.441 114.618 102.338 115.595 103.165C116.571 103.996 117.548 104.666 118.524 105.174C119.501 105.687 120.341 105.944 121.045 105.944C121.59 105.944 122.085 105.815 122.53 105.556C122.971 105.292 123.225 104.945 123.293 104.513C123.293 104.423 123.339 104.382 123.43 104.391C123.52 104.404 123.554 104.468 123.532 104.582C123.441 105.376 123.009 105.955 122.237 106.319C121.465 106.682 120.602 106.864 119.648 106.864C118.422 106.864 117.26 106.637 116.16 106.183C115.057 105.728 114.035 105.142 113.095 104.425C112.15 103.712 111.333 102.935 110.642 102.095C109.947 101.255 109.395 100.449 108.987 99.6764C108.01 101.107 107.109 102.481 106.282 103.798C105.451 105.115 104.865 106.205 104.524 107.068C104.479 107.227 104.384 107.359 104.238 107.463C104.088 107.563 103.957 107.613 103.843 107.613ZM130.889 107.647C129.481 107.647 128.244 107.5 127.176 107.204C126.109 106.909 125.348 106.58 124.894 106.217C123.759 105.331 123.191 104.309 123.191 103.151C123.191 102.174 123.618 101.191 124.472 100.201C125.321 99.2154 126.62 98.3071 128.369 97.4759C130.117 96.6493 132.32 95.9976 134.977 95.5207C136.112 95.3163 137.266 95.1574 138.438 95.0438C139.605 94.9303 140.779 94.8735 141.96 94.8735C142.959 94.8735 143.965 94.9189 144.978 95.0098C145.986 95.1006 146.979 95.2482 147.955 95.4526C148.273 95.5207 148.636 95.6047 149.045 95.7046C149.454 95.8091 149.874 95.9295 150.305 96.0657C152.19 94.1355 154.03 92.2166 155.824 90.309C157.618 88.4015 159.355 86.7891 161.035 85.472C162.216 84.541 163.318 83.9051 164.34 83.5645C165.361 83.2238 166.27 83.0535 167.065 83.0535C167.996 83.0535 168.763 83.1943 169.367 83.4759C169.967 83.762 170.357 83.9959 170.539 84.1776C170.607 84.2457 170.607 84.3139 170.539 84.382C170.471 84.4501 170.403 84.4501 170.335 84.382C170.221 84.2457 169.949 84.0981 169.517 83.9392C169.086 83.7802 168.529 83.7007 167.848 83.7007C167.008 83.7007 166.02 83.8938 164.885 84.2798C163.749 84.6659 162.489 85.3925 161.104 86.4599C159.4 87.7997 157.715 89.3371 156.049 91.072C154.377 92.8115 152.679 94.5556 150.953 96.3042C151.838 96.6221 152.651 97.0536 153.392 97.5986C154.127 98.1436 154.552 98.8135 154.666 99.6083V99.7446C154.666 99.8354 154.643 99.8808 154.597 99.8808C154.529 99.8808 154.461 99.8127 154.393 99.6764C154.302 99.4266 154.048 99.2109 153.63 99.0292C153.208 98.8476 152.724 98.7 152.179 98.5864C151.634 98.4729 151.112 98.382 150.612 98.3139C150.112 98.2458 149.738 98.2004 149.488 98.1776L149.113 98.1436C147.228 99.9603 145.282 101.634 143.275 103.165C141.263 104.7 139.133 105.853 136.885 106.625C135.817 106.989 134.779 107.25 133.771 107.409C132.758 107.568 131.798 107.647 130.889 107.647ZM157.22 109.316C156.198 108.59 155.449 107.715 154.972 106.693C154.495 105.672 154.257 104.57 154.257 103.389C154.257 102.208 154.461 101.028 154.87 99.8467C155.279 98.6432 155.876 97.3942 156.662 96.0998C157.443 94.8054 158.299 93.5382 159.23 92.2983C160.161 91.063 161.065 89.9275 161.942 88.892C162.814 87.861 163.552 87.0049 164.156 86.3236C164.755 85.6423 165.112 85.2222 165.225 85.0633C165.361 84.8816 165.464 84.7908 165.532 84.7908C165.623 84.7908 165.691 84.8634 165.736 85.0088C165.782 85.1586 165.804 85.3244 165.804 85.5061C165.804 85.8694 165.748 86.1306 165.634 86.2895C165.044 87.0389 164.34 87.9927 163.522 89.1509C162.705 90.309 161.876 91.5966 161.035 93.0136C160.195 94.4352 159.412 95.8954 158.685 97.3942C157.958 98.893 157.375 100.358 156.934 101.788C156.489 103.219 156.267 104.525 156.267 105.706C156.267 106.387 156.357 107.011 156.539 107.579C156.721 108.147 157.016 108.646 157.425 109.078C157.447 109.101 157.459 109.135 157.459 109.18C157.459 109.226 157.436 109.271 157.391 109.316C157.345 109.362 157.288 109.362 157.22 109.316ZM130.992 107.068C131.832 107.068 132.74 106.996 133.717 106.85C134.693 106.7 135.704 106.466 136.748 106.148C138.701 105.535 140.643 104.491 142.573 103.015C144.503 101.539 146.4 99.8922 148.262 98.0755C147.966 98.0527 147.671 98.0414 147.376 98.0414C147.081 98.0414 146.774 98.0414 146.456 98.0414C144.867 98.0414 143.216 98.1209 141.504 98.2798C139.787 98.4388 138.156 98.6659 136.612 98.9611C134.114 99.3926 132.077 99.9308 130.501 100.576C128.921 101.225 127.762 101.902 127.027 102.606C126.286 103.31 125.916 103.98 125.916 104.616C125.916 105.229 126.223 105.762 126.836 106.217C127.154 106.444 127.676 106.644 128.403 106.816C129.129 106.984 129.992 107.068 130.992 107.068ZM157.391 116.947C156.096 116.947 155.086 116.606 154.359 115.925C153.632 115.243 153.269 114.324 153.269 113.166C153.269 112.439 153.421 111.639 153.725 110.767C154.034 109.891 154.507 108.964 155.142 107.988C155.846 106.898 156.698 105.853 157.697 104.854C158.696 103.855 159.768 102.924 160.913 102.061C162.062 101.198 163.193 100.449 164.306 99.8127C164.51 98.2912 164.975 96.7583 165.702 95.2141C166.429 93.6699 167.342 92.187 168.441 90.7655C169.544 89.3484 170.759 88.0722 172.086 86.9367C173.416 85.8013 174.774 84.8816 176.16 84.1776C177.409 83.5418 178.669 83.2238 179.941 83.2238C181.144 83.2238 182.2 83.5418 183.108 84.1776C184.017 84.8135 184.585 85.7786 184.812 87.073C184.834 87.1865 184.85 87.3114 184.859 87.4477C184.873 87.5839 184.88 87.7202 184.88 87.8565C184.88 89.0373 184.562 90.4157 183.926 91.9917C183.29 93.5723 182.416 95.2596 181.303 97.0536C180.19 98.8476 178.901 100.657 177.434 102.483C175.971 104.314 174.411 106.064 172.753 107.736C171.095 109.403 169.408 110.906 167.691 112.246C165.979 113.586 164.306 114.664 162.67 115.482C161.649 115.981 160.695 116.352 159.809 116.592C158.924 116.828 158.117 116.947 157.391 116.947ZM158.447 115.686C158.924 115.686 159.439 115.625 159.993 115.502C160.552 115.375 161.115 115.198 161.683 114.971C163.136 114.358 164.657 113.456 166.247 112.266C167.837 111.072 169.42 109.687 170.996 108.111C172.576 106.53 174.064 104.861 175.458 103.103C176.857 101.341 178.101 99.5742 179.191 97.8029C180.281 96.0317 181.137 94.3512 181.76 92.7616C182.386 91.172 182.7 89.7754 182.7 88.5718C182.7 87.4591 182.427 86.5552 181.882 85.8603C181.337 85.17 180.497 84.8248 179.361 84.8248C178.612 84.8248 177.726 84.9951 176.705 85.3358C174.638 86.0397 172.826 87.0775 171.268 88.4492C169.715 89.8253 168.461 91.4263 167.507 93.2521C166.554 95.0824 165.941 97.0308 165.668 99.0974C166.735 98.5751 167.819 98.1595 168.918 97.8506C170.021 97.5463 171.107 97.3942 172.174 97.3942C172.31 97.3942 172.451 97.3942 172.597 97.3942C172.746 97.3942 172.889 97.4055 173.026 97.4283C173.639 97.4737 174.161 97.6258 174.593 97.8847C175.024 98.1481 175.297 98.5069 175.41 98.9611C175.456 99.0519 175.478 99.1246 175.478 99.1791C175.478 99.2382 175.478 99.2904 175.478 99.3358C175.478 99.4039 175.456 99.438 175.41 99.438C175.387 99.438 175.347 99.4266 175.288 99.4039C175.233 99.3812 175.16 99.3585 175.07 99.3358C174.979 99.3131 174.876 99.2949 174.763 99.2813C174.649 99.2722 174.536 99.2677 174.422 99.2677C173.355 99.2677 172.042 99.6128 170.485 100.303C168.931 100.998 167.36 101.856 165.77 102.878C165.929 103.242 166.111 103.503 166.315 103.662C166.52 103.821 166.735 103.912 166.962 103.934C167.121 103.934 167.201 104.002 167.201 104.139C167.201 104.252 167.076 104.309 166.826 104.309C166.735 104.309 166.615 104.298 166.465 104.275C166.32 104.252 166.145 104.218 165.941 104.173C165.532 104.059 165.18 103.821 164.885 103.457C163.499 104.389 162.137 105.388 160.797 106.455C159.457 107.522 158.276 108.715 157.254 110.032C156.687 110.781 156.271 111.451 156.008 112.041C155.749 112.632 155.619 113.154 155.619 113.608C155.619 114.312 155.885 114.835 156.416 115.175C156.952 115.516 157.629 115.686 158.447 115.686ZM188.899 108.056C186.878 108.056 185.084 107.813 183.517 107.327C181.95 106.837 180.894 106.058 180.349 104.99C180.236 104.763 180.179 104.616 180.179 104.547C180.179 104.502 180.202 104.479 180.247 104.479C180.338 104.479 180.497 104.559 180.724 104.718C181.587 105.308 182.688 105.694 184.028 105.876C185.368 106.058 186.708 106.148 188.048 106.148C189.342 106.148 190.743 106.035 192.251 105.808C193.763 105.581 195.285 105.245 196.816 104.8C198.351 104.359 199.845 103.798 201.298 103.117C202.752 102.436 204.08 101.641 205.284 100.732C207.169 99.3017 208.542 97.9165 209.405 96.5767C210.268 95.2368 210.7 93.9765 210.7 92.7956C210.7 91.5012 210.223 90.3544 209.269 89.3552C208.315 88.3561 206.991 87.5771 205.297 87.0185C203.608 86.4644 201.628 86.1874 199.357 86.1874C198.539 86.1874 197.699 86.2214 196.836 86.2895C195.383 86.4258 193.934 86.6688 192.489 87.0185C191.05 87.3728 189.676 87.811 188.368 88.3333C187.064 88.8556 185.902 89.4234 184.88 90.0365C183.858 90.6496 183.056 91.2787 182.475 91.9236C181.898 92.5731 181.61 93.2044 181.61 93.8175C181.61 94.2036 181.746 94.5896 182.018 94.9757C182.087 95.0438 182.121 95.1347 182.121 95.2482C182.121 95.339 182.087 95.4003 182.018 95.4321C181.95 95.4685 181.859 95.4412 181.746 95.3504C181.542 95.1233 181.349 94.7645 181.167 94.274C180.985 93.788 180.894 93.2385 180.894 92.6253C180.894 92.0122 181.035 91.3695 181.317 90.6973C181.603 90.0297 182.109 89.412 182.836 88.8443C183.699 88.163 184.766 87.5204 186.038 86.9163C187.31 86.3168 188.699 85.7899 190.207 85.3358C191.72 84.8816 193.275 84.5296 194.874 84.2798C196.477 84.03 198.062 83.9051 199.629 83.9051C202.332 83.9051 204.55 84.3071 206.285 85.111C208.025 85.9194 209.315 86.9867 210.155 88.3129C210.995 89.6436 211.415 91.1038 211.415 92.6934C211.415 94.1468 211.068 95.6343 210.373 97.1557C209.682 98.6772 208.672 100.119 207.341 101.482C206.015 102.844 204.375 104.025 202.422 105.024C201.173 105.638 199.788 106.171 198.267 106.625C196.745 107.08 195.178 107.432 193.566 107.681C191.954 107.931 190.398 108.056 188.899 108.056ZM185.459 103.457C185.3 103.457 185.22 103.298 185.22 102.981C185.22 102.663 185.395 102.14 185.745 101.414C186.099 100.687 186.572 99.8467 187.162 98.893C187.752 97.9392 188.404 96.9332 189.117 95.875C189.835 94.8213 190.557 93.788 191.284 92.7752C192.01 91.7669 192.692 90.8472 193.327 90.0161C193.963 89.1895 194.502 88.5309 194.942 88.0404C195.387 87.5544 195.666 87.3114 195.78 87.3114H196.087C196.336 87.3114 196.461 87.3682 196.461 87.4818C196.461 87.5953 196.37 87.7429 196.189 87.9246C195.417 88.7648 194.604 89.7186 193.75 90.7859C192.901 91.8532 192.056 92.9728 191.216 94.1445C190.375 95.3118 189.585 96.4631 188.845 97.5986C188.109 98.734 187.469 99.79 186.924 100.766C186.379 101.743 185.981 102.56 185.731 103.219C185.663 103.378 185.572 103.457 185.459 103.457ZM215.871 107.647C214.463 107.647 213.225 107.5 212.158 107.204C211.09 106.909 210.33 106.58 209.875 106.217C208.74 105.331 208.172 104.309 208.172 103.151C208.172 102.174 208.599 101.191 209.453 100.201C210.302 99.2154 211.601 98.3071 213.35 97.4759C215.098 96.6493 217.301 95.9976 219.958 95.5207C221.094 95.3163 222.247 95.1574 223.419 95.0438C224.586 94.9303 225.76 94.8735 226.941 94.8735C227.94 94.8735 228.946 94.9189 229.959 95.0098C230.967 95.1006 231.96 95.2482 232.936 95.4526C233.254 95.5207 233.618 95.6047 234.026 95.7046C234.435 95.8091 234.855 95.9295 235.287 96.0657C237.171 94.1355 239.011 92.2166 240.805 90.309C242.599 88.4015 244.336 86.7891 246.017 85.472C247.197 84.541 248.299 83.9051 249.321 83.5645C250.343 83.2238 251.251 83.0535 252.046 83.0535C252.977 83.0535 253.744 83.1943 254.349 83.4759C254.948 83.762 255.339 83.9959 255.52 84.1776C255.588 84.2457 255.588 84.3139 255.52 84.382C255.452 84.4501 255.384 84.4501 255.316 84.382C255.202 84.2457 254.93 84.0981 254.498 83.9392C254.067 83.7802 253.511 83.7007 252.829 83.7007C251.989 83.7007 251.001 83.8938 249.866 84.2798C248.73 84.6659 247.47 85.3925 246.085 86.4599C244.382 87.7997 242.697 89.3371 241.03 91.072C239.358 92.8115 237.66 94.5556 235.934 96.3042C236.82 96.6221 237.632 97.0536 238.373 97.5986C239.109 98.1436 239.533 98.8135 239.647 99.6083V99.7446C239.647 99.8354 239.624 99.8808 239.579 99.8808C239.511 99.8808 239.442 99.8127 239.374 99.6764C239.283 99.4266 239.029 99.2109 238.611 99.0292C238.189 98.8476 237.705 98.7 237.16 98.5864C236.615 98.4729 236.093 98.382 235.593 98.3139C235.094 98.2458 234.719 98.2004 234.469 98.1776L234.094 98.1436C232.21 99.9603 230.263 101.634 228.256 103.165C226.244 104.7 224.114 105.853 221.866 106.625C220.798 106.989 219.761 107.25 218.752 107.409C217.74 107.568 216.779 107.647 215.871 107.647ZM242.202 109.316C241.18 108.59 240.43 107.715 239.953 106.693C239.476 105.672 239.238 104.57 239.238 103.389C239.238 102.208 239.442 101.028 239.851 99.8467C240.26 98.6432 240.857 97.3942 241.643 96.0998C242.424 94.8054 243.28 93.5382 244.211 92.2983C245.142 91.063 246.046 89.9275 246.923 88.892C247.795 87.861 248.533 87.0049 249.137 86.3236C249.736 85.6423 250.093 85.2222 250.206 85.0633C250.343 84.8816 250.445 84.7908 250.513 84.7908C250.604 84.7908 250.672 84.8634 250.717 85.0088C250.763 85.1586 250.785 85.3244 250.785 85.5061C250.785 85.8694 250.729 86.1306 250.615 86.2895C250.025 87.0389 249.321 87.9927 248.503 89.1509C247.686 90.309 246.857 91.5966 246.017 93.0136C245.176 94.4352 244.393 95.8954 243.666 97.3942C242.94 98.893 242.356 100.358 241.915 101.788C241.47 103.219 241.248 104.525 241.248 105.706C241.248 106.387 241.339 107.011 241.52 107.579C241.702 108.147 241.997 108.646 242.406 109.078C242.429 109.101 242.44 109.135 242.44 109.18C242.44 109.226 242.417 109.271 242.372 109.316C242.326 109.362 242.27 109.362 242.202 109.316ZM215.973 107.068C216.813 107.068 217.721 106.996 218.698 106.85C219.674 106.7 220.685 106.466 221.729 106.148C223.682 105.535 225.624 104.491 227.554 103.015C229.485 101.539 231.381 99.8922 233.243 98.0755C232.948 98.0527 232.652 98.0414 232.357 98.0414C232.062 98.0414 231.755 98.0414 231.438 98.0414C229.848 98.0414 228.197 98.1209 226.485 98.2798C224.768 98.4388 223.137 98.6659 221.593 98.9611C219.095 99.3926 217.058 99.9308 215.482 100.576C213.902 101.225 212.744 101.902 212.008 102.606C211.267 103.31 210.897 103.98 210.897 104.616C210.897 105.229 211.204 105.762 211.817 106.217C212.135 106.444 212.657 106.644 213.384 106.816C214.111 106.984 214.974 107.068 215.973 107.068ZM253.579 107.613C252.398 107.613 251.319 107.352 250.343 106.83C249.366 106.307 248.59 105.558 248.013 104.582C247.431 103.605 247.141 102.436 247.141 101.073C247.141 100.051 247.341 98.9202 247.74 97.6803C248.135 96.445 248.764 95.1347 249.627 93.7494C250.49 92.3869 251.474 91.1379 252.577 90.0024C253.676 88.867 254.789 87.9064 255.915 87.1207C257.037 86.3395 258.052 85.8013 258.961 85.5061C259.71 85.2336 260.482 85.0973 261.277 85.0973C262.231 85.0973 263.06 85.3698 263.764 85.9148C264.468 86.4599 264.82 87.3682 264.82 88.6399C264.82 89.0714 264.774 89.496 264.683 89.9139C264.592 90.3363 264.513 90.6496 264.445 90.854C264.422 90.9903 264.377 91.0584 264.309 91.0584C264.172 91.0584 264.127 90.9335 264.172 90.6837C264.218 90.4793 264.259 90.2908 264.295 90.1183C264.327 89.9502 264.343 89.7981 264.343 89.6618C264.343 89.1168 264.184 88.7239 263.866 88.4832C263.548 88.247 263.116 88.129 262.571 88.129C261.799 88.129 260.88 88.3333 259.812 88.7421C258.745 89.1509 257.628 89.7118 256.46 90.4248C255.289 91.1424 254.18 91.9486 253.136 92.8433C252.091 93.7426 251.217 94.6805 250.513 95.657C249.627 96.8832 248.969 98.0414 248.537 99.1314C248.106 100.221 247.89 101.209 247.89 102.095C247.89 103.276 248.272 104.218 249.035 104.922C249.793 105.626 250.899 105.978 252.352 105.978C253.011 105.978 253.726 105.903 254.498 105.753C255.27 105.608 256.111 105.376 257.019 105.058C258.359 104.582 259.717 103.9 261.093 103.015C262.465 102.129 263.695 101.016 264.786 99.6764C265.807 98.4047 266.716 96.8446 267.511 94.9961C268.305 93.1431 268.703 91.0471 268.703 88.708C268.703 87.4591 268.596 86.4985 268.383 85.8263C268.165 85.1586 267.903 84.6886 267.599 84.4161C267.29 84.1436 267 84.0073 266.727 84.0073C266.636 84.0073 266.523 84.03 266.386 84.0754C266.364 84.0754 266.348 84.08 266.339 84.0891C266.325 84.1027 266.307 84.1095 266.284 84.1095C266.216 84.1095 266.182 84.0754 266.182 84.0073C266.182 83.8938 266.262 83.8029 266.421 83.7348C266.602 83.6667 266.807 83.6326 267.034 83.6326C267.465 83.6326 267.908 83.7802 268.362 84.0754C268.816 84.3706 269.209 84.8702 269.541 85.5742C269.868 86.2782 270.031 87.232 270.031 88.4355C270.031 90.116 269.766 91.6874 269.234 93.1499C268.698 94.6169 268.033 95.9635 267.238 97.1898C266.443 98.4161 265.66 99.5175 264.888 100.494C264.07 101.539 263.037 102.61 261.788 103.71C260.539 104.813 259.233 105.728 257.871 106.455C257.167 106.841 256.447 107.132 255.711 107.327C254.971 107.518 254.26 107.613 253.579 107.613ZM284.713 110.304C283.6 110.304 282.832 110.054 282.41 109.555C281.992 109.055 281.783 108.431 281.783 107.681C281.783 106.955 281.919 106.171 282.192 105.331C282.464 104.491 282.787 103.689 283.159 102.926C283.536 102.168 283.85 101.55 284.099 101.073C281.783 104.093 279.648 106.08 277.696 107.034C277.082 107.329 276.492 107.477 275.924 107.477C275.016 107.477 274.305 107.148 273.792 106.489C273.283 105.831 273.029 105.058 273.029 104.173C273.029 104.059 273.029 103.946 273.029 103.832C273.029 103.719 273.04 103.616 273.063 103.526C273.222 102.481 273.544 101.346 274.03 100.119C274.521 98.893 275.073 97.6485 275.686 96.3859C276.299 95.1278 276.905 93.9016 277.505 92.7071C278.109 91.5171 278.604 90.4157 278.99 89.4029C279.376 88.3947 279.569 87.5499 279.569 86.8686C279.569 86.0738 279.335 85.5174 278.867 85.1995C278.404 84.8816 277.798 84.7226 277.048 84.7226C276.322 84.7226 275.515 84.8475 274.63 85.0973C273.744 85.3471 272.859 85.6582 271.973 86.0307C271.087 86.4076 270.286 86.8005 269.568 87.2093C268.855 87.618 268.294 87.9814 267.885 88.2993C267.726 88.4355 267.556 88.5037 267.374 88.5037C267.147 88.5037 266.954 88.3606 266.795 88.0745C266.636 87.7929 266.557 87.4704 266.557 87.1071C266.557 86.8118 266.614 86.5212 266.727 86.235C266.841 85.9535 267.011 85.7218 267.238 85.5401C267.715 85.1541 268.453 84.7839 269.452 84.4297C270.451 84.08 271.569 83.7916 272.804 83.5645C274.044 83.3374 275.254 83.2238 276.435 83.2238C277.502 83.2238 278.479 83.3306 279.365 83.544C280.25 83.762 280.966 84.1254 281.511 84.6341C282.056 85.1473 282.328 85.8354 282.328 86.6983C282.328 86.9708 282.294 87.266 282.226 87.5839C282.09 88.2198 281.794 89.026 281.34 90.0024C280.886 90.9789 280.346 92.0462 279.719 93.2044C279.097 94.3626 278.456 95.5366 277.798 96.7265C277.139 97.921 276.537 99.0633 275.992 100.153C275.447 101.243 275.039 102.208 274.766 103.049C274.539 103.707 274.425 104.332 274.425 104.922C274.425 105.467 274.544 105.915 274.78 106.264C275.02 106.619 275.391 106.796 275.89 106.796C276.412 106.796 277.06 106.58 277.832 106.148C278.922 105.558 280.012 104.695 281.102 103.56C282.192 102.424 283.259 101.146 284.304 99.7241C285.348 98.3071 286.352 96.8605 287.315 95.3845C288.282 93.9084 289.186 92.505 290.026 91.1742C290.867 89.848 291.605 88.7194 292.241 87.7883C292.581 87.3114 292.949 86.9822 293.344 86.8005C293.744 86.6188 294.091 86.528 294.387 86.528C294.659 86.528 294.857 86.5779 294.979 86.6779C295.106 86.7823 295.102 86.9027 294.966 87.0389C294.58 87.425 294.046 88.0835 293.365 89.0146C292.683 89.9457 291.927 91.0471 291.096 92.3188C290.269 93.5905 289.447 94.953 288.63 96.4064C287.812 97.8597 287.056 99.2949 286.361 100.712C285.671 102.134 285.115 103.462 284.692 104.697C284.274 105.937 284.065 106.977 284.065 107.818C284.065 108.317 284.156 108.744 284.338 109.098C284.52 109.448 284.803 109.646 285.189 109.691L285.428 109.725H285.53C285.803 109.725 286.041 109.623 286.245 109.419C286.291 109.373 286.348 109.35 286.416 109.35C286.461 109.35 286.484 109.38 286.484 109.439C286.484 109.493 286.427 109.555 286.314 109.623C286.155 109.759 285.916 109.907 285.598 110.066C285.28 110.225 284.985 110.304 284.713 110.304ZM293.296 93.545C293.16 93.545 293.047 93.4996 292.956 93.4088C292.547 93.1363 292.211 92.7548 291.948 92.2643C291.689 91.7783 291.559 91.2514 291.559 90.6837C291.559 90.116 291.718 89.5483 292.036 88.9805C292.354 88.4128 292.888 87.9132 293.637 87.4818C294.841 86.7778 296.242 86.1805 297.841 85.69C299.444 85.2041 301.09 84.8248 302.78 84.5523C304.474 84.2798 306.07 84.1436 307.569 84.1436C308.159 84.1436 308.857 84.2003 309.661 84.3139C310.469 84.4274 311.252 84.6318 312.011 84.927C312.774 85.2222 313.405 85.6242 313.905 86.1329C314.404 86.6461 314.654 87.3001 314.654 88.0949C314.654 88.1857 314.654 88.2698 314.654 88.347C314.654 88.4287 314.643 88.515 314.62 88.6058C314.62 88.8102 314.563 88.9124 314.45 88.9124C314.382 88.9124 314.348 88.8556 314.348 88.7421C314.348 88.674 314.352 88.6059 314.361 88.5377C314.375 88.4696 314.382 88.4015 314.382 88.3333C314.382 87.6748 313.887 87.1979 312.897 86.9027C311.911 86.6075 310.669 86.4599 309.17 86.4599C307.876 86.4599 306.468 86.5552 304.946 86.746C303.425 86.9413 301.919 87.2093 300.429 87.5499C298.944 87.8905 297.588 88.2811 296.362 88.7217C295.136 89.1668 294.153 89.655 293.412 90.1864C292.677 90.7223 292.309 91.2741 292.309 91.8419C292.309 92.3642 292.672 92.8751 293.399 93.3747C293.444 93.3974 293.467 93.4315 293.467 93.4769C293.467 93.5223 293.41 93.545 293.296 93.545ZM296.124 111.19C296.01 111.19 295.953 111.065 295.953 110.815C295.953 110.588 296.022 110.27 296.158 109.861C296.317 109.43 296.548 108.896 296.853 108.26C297.162 107.625 297.532 106.909 297.963 106.114C297.395 106.16 296.85 106.235 296.328 106.339C295.806 106.439 295.306 106.557 294.829 106.693C294.284 106.83 293.71 107.03 293.106 107.293C292.506 107.552 291.927 107.79 291.369 108.008C290.814 108.222 290.333 108.329 289.924 108.329C289.629 108.329 289.413 108.272 289.277 108.158C289.118 108.045 289.039 107.795 289.039 107.409C289.039 107.068 289.168 106.664 289.427 106.196C289.69 105.733 290.167 105.274 290.858 104.82C291.552 104.366 292.558 103.98 293.876 103.662C294.375 103.526 294.982 103.423 295.695 103.355C296.412 103.287 297.191 103.253 298.031 103.253C298.281 103.253 298.535 103.253 298.794 103.253C299.058 103.253 299.314 103.264 299.564 103.287C300.382 101.879 301.261 100.419 302.201 98.9066C303.145 97.3987 304.083 95.9295 305.014 94.4988C305.945 93.0681 306.801 91.7783 307.583 90.6292C308.368 89.4847 309.016 88.5763 309.524 87.9041C310.037 87.2365 310.351 86.9027 310.464 86.9027H310.771C310.975 86.9027 311.078 86.9708 311.078 87.1071C311.078 87.2433 310.953 87.4704 310.703 87.7883C309.681 89.1282 308.568 90.6724 307.365 92.4209C306.161 94.1695 304.958 95.9862 303.754 97.8711C302.55 99.7559 301.426 101.584 300.382 103.355C301.676 103.469 302.902 103.712 304.061 104.084C305.219 104.461 306.166 104.99 306.901 105.672C307.642 106.353 308.012 107.227 308.012 108.294C308.012 108.908 307.921 109.214 307.739 109.214C307.626 109.214 307.592 109.101 307.637 108.874C307.773 108.283 307.49 107.779 306.786 107.361C306.082 106.939 305.128 106.614 303.924 106.387C302.721 106.16 301.426 106.046 300.041 106.046C299.837 106.046 299.632 106.046 299.428 106.046C299.224 106.046 299.019 106.058 298.815 106.08C298.315 106.989 297.854 107.847 297.432 108.656C297.014 109.459 296.68 110.179 296.43 110.815C296.317 111.065 296.215 111.19 296.124 111.19Z" fill="black" stroke="black" stroke-width="15.9927" stroke-linejoin="round"/>
</g>
</g>
</g>
</g>
</g>
</g>
</g>
</mask>
<g mask="url(#mask0_278_249)">
<path d="M158.55 177.221C157.536 177.221 157.391 176.569 158.115 175.266C158.984 173.528 159.419 171.935 159.419 170.487C159.419 167.446 157.608 165.013 153.988 163.189C150.368 161.393 145.415 160.133 139.131 159.409C132.817 158.685 125.75 158.323 117.93 158.323C108.228 158.323 97.9461 158.757 87.0856 159.627C76.2251 160.495 65.6969 161.509 55.5017 162.667C45.2783 163.826 36.2993 164.984 28.567 166.143C20.8049 167.302 15.1864 168.243 11.7106 168.967C9.39363 169.402 7.04766 168.634 4.67266 166.664C2.26863 164.723 1.06702 162.522 1.06702 160.06C1.06702 157.744 2.15331 155.789 4.32508 154.196C5.62831 153.327 7.77186 152.024 10.7549 150.285C13.709 148.548 16.2719 147.172 18.4444 146.159L19.0961 145.724C26.3364 138.484 34.5186 130.809 43.642 122.699C52.7654 114.59 62.4243 106.509 72.6186 98.4581C82.842 90.4355 93.2106 82.8331 103.724 75.65C114.209 68.496 124.447 62.1968 134.439 56.7516C144.431 51.3355 153.771 47.2516 162.46 44.5008C159.708 42.0387 155.002 40.2291 148.34 39.0702C141.679 37.9113 134.221 37.3323 125.967 37.3331C117.133 37.3331 108.011 37.9411 98.5977 39.1573C89.1848 40.4024 80.4235 42.1403 72.3146 44.371C64.2049 46.6299 57.6162 49.3524 52.5477 52.5379C47.4791 55.7234 44.9452 59.2718 44.9452 63.1815C44.9452 65.4984 46.1759 68.1049 48.638 71.0016C48.7831 71.1468 48.8549 71.3637 48.8549 71.6532C48.8549 71.7984 48.7098 71.8702 48.4202 71.8702C47.4065 71.8702 46.6098 71.5807 46.0307 71.0016C43.1348 68.25 41.6864 64.992 41.6864 61.2266C41.6864 57.6065 42.9606 53.8411 45.5098 49.9315C48.0291 46.0218 51.5049 42.3291 55.9364 38.8532C60.3388 35.3774 65.4364 32.5541 71.2283 30.3815C78.1791 27.775 85.9267 25.8637 94.4702 24.6476C103.014 23.4024 111.486 22.7799 119.885 22.7791C129.587 22.7791 138.855 23.5758 147.689 25.1686C151.165 25.7476 154.756 26.7903 158.463 28.2968C162.141 29.8315 165.182 31.9315 167.586 34.596C169.961 37.2895 171.004 40.7363 170.714 44.9355C171.148 45.3702 171.365 45.8766 171.365 46.4557C171.365 47.1799 171.003 47.8315 170.279 48.4105C170.134 49.4242 169.917 50.4379 169.628 51.4516C169.338 52.4653 168.976 53.5516 168.542 54.7105C168.107 55.8694 167.673 56.3323 167.239 56.1C166.804 55.8976 166.804 55.4339 167.239 54.7105C167.818 52.9726 168.036 51.3799 167.89 49.9315L167.239 50.3661C153.337 56.5928 139.724 63.6887 126.402 71.6532C113.079 79.6178 100.408 87.8718 88.3888 96.4161C76.3694 104.96 65.3348 113.244 55.2848 121.265C45.2057 129.317 36.4735 136.601 29.088 143.118C32.9977 141.815 38.9065 140.801 46.813 140.077C54.6904 139.352 63.3364 138.99 72.7485 138.99C80.713 138.99 88.8662 139.309 97.2073 139.946C105.519 140.612 113.557 141.626 121.319 142.987C129.052 144.377 135.959 146.187 142.041 148.418C148.123 150.677 152.974 153.428 156.594 156.672C160.215 159.944 162.025 163.753 162.025 168.098C162.025 170.56 161.519 172.877 160.505 175.048C159.926 176.497 159.274 177.22 158.55 177.221ZM162.46 175.483C161.301 175.483 160.722 174.831 160.722 173.528C160.722 173.239 160.765 172.949 160.853 172.659C160.911 172.369 161.012 172.007 161.157 171.573C162.025 168.243 163.937 163.753 166.891 158.106C169.874 152.458 173.567 146.115 177.969 139.077C182.4 132.069 187.15 124.872 192.219 117.486C191.35 114.445 190.988 111.983 191.132 110.101C191.278 108.652 192.248 106.944 194.043 104.974C195.868 103.034 197.894 101.369 200.125 99.9782C202.384 98.6169 204.165 98.0815 205.469 98.371C211.116 90.696 216.402 83.6726 221.326 77.3008C226.249 70.9291 230.406 65.8605 233.794 62.0952C237.211 58.3299 239.354 56.4476 240.223 56.4476C241.382 56.4476 242.251 56.9541 242.83 57.9686C243.409 58.9823 243.698 59.9234 243.699 60.792C243.699 60.792 241.99 62.921 238.573 67.1782C235.184 71.4645 230.782 77.1266 225.366 84.1645C219.921 91.1734 214.158 98.8774 208.075 107.277C208.22 107.422 208.292 107.639 208.293 107.928C208.293 108.218 208.365 108.507 208.51 108.798L216.33 108.146C223.715 107.567 231.535 106.22 239.789 104.106C248.043 102.02 256.153 99.3557 264.118 96.1121C272.082 92.8395 279.178 89.1032 285.405 84.9032C292.356 80.1242 298.119 75.0129 302.695 69.5678C307.242 64.1516 309.516 59.1992 309.516 54.7105C309.516 50.221 306.837 46.4855 301.479 43.5016C296.121 40.5476 287.07 39.0702 274.327 39.0702C269.982 39.0702 264.624 39.5766 258.253 40.5911C251.881 41.6049 245.046 42.9807 237.747 44.7178C230.419 46.4557 223.179 48.5121 216.025 50.8871C208.843 53.2911 202.326 55.8686 196.476 58.6202C190.597 61.3718 185.919 64.1952 182.444 67.0911C180.127 69.1186 179.33 70.7839 180.054 72.0879C180.344 72.5226 180.489 72.9565 180.489 73.3911C180.489 73.6807 180.344 73.8258 180.054 73.825C179.619 73.825 179.04 73.6081 178.316 73.1734C175.999 71.725 174.305 69.8718 173.234 67.6129C172.133 65.3831 171.583 63.3266 171.583 61.4436C171.583 59.7057 171.873 58.5476 172.452 57.9686C175.058 54.2032 179.359 50.5831 185.354 47.1073C191.378 43.6315 198.445 40.446 206.555 37.55C214.665 34.6541 223.281 32.1194 232.403 29.9476C241.527 27.7758 250.461 26.1097 259.208 24.9516C267.984 23.7928 275.992 23.2137 283.232 23.2137C289.169 23.2137 294.165 23.6484 298.22 24.517C303.868 25.6758 308.647 28.4557 312.557 32.8581C316.467 37.2895 318.422 42.6911 318.422 49.0621C318.422 54.9992 316.076 61.5161 311.384 68.6121C306.663 75.7081 298.582 82.5863 287.143 89.2476C280.771 93.0129 273.458 96.517 265.203 99.7613C256.949 103.034 248.594 105.756 240.136 107.928C231.65 110.1 223.787 111.404 216.547 111.839C215.388 111.984 214.23 112.056 213.071 112.056C211.912 112.056 210.754 112.056 209.596 112.056C211.913 117.848 215.577 123.815 220.587 129.954C225.569 136.123 231.173 141.843 237.4 147.115C243.627 152.415 249.854 156.686 256.081 159.931C262.307 163.203 267.665 164.84 272.154 164.84C275.63 164.84 278.772 164.014 281.582 162.363C284.419 160.683 286.057 158.468 286.491 155.716C286.491 155.137 286.781 154.877 287.36 154.935C287.939 155.022 288.157 155.427 288.011 156.151C287.432 161.219 284.681 164.912 279.757 167.229C274.834 169.546 269.331 170.705 263.248 170.704C255.428 170.704 248.015 169.256 241.006 166.36C233.968 163.464 227.452 159.727 221.456 155.152C215.432 150.605 210.219 145.652 205.816 140.294C201.385 134.935 197.866 129.794 195.26 124.872C189.033 133.995 183.269 142.756 177.969 151.155C172.698 159.554 168.976 166.505 166.804 172.007C166.515 173.021 165.892 173.86 164.936 174.527C164.009 175.165 163.183 175.483 162.46 175.483Z" fill="black"/>
</g>
<g clip-path="url(#clip10_278_249)">
<g clip-path="url(#clip11_278_249)">
<g clip-path="url(#clip12_278_249)">
<g clip-path="url(#clip13_278_249)">
<g clip-path="url(#clip14_278_249)">
<g clip-path="url(#clip15_278_249)">
<path d="M29.5306 107.886C29.3716 107.886 29.3489 107.784 29.4624 107.579C29.5987 107.307 29.6668 107.057 29.6668 106.83C29.6668 106.353 29.383 105.971 28.8152 105.685C28.2475 105.404 27.4709 105.206 26.4853 105.093C25.4952 104.979 24.387 104.922 23.1607 104.922C21.6392 104.922 20.0269 104.99 18.3237 105.127C16.6206 105.263 14.9696 105.422 13.3709 105.603C11.7677 105.785 10.3597 105.967 9.14707 106.148C7.92988 106.33 7.04877 106.478 6.50376 106.591C6.14042 106.659 5.77253 106.539 5.40011 106.23C5.02314 105.926 4.83466 105.581 4.83466 105.195C4.83466 104.831 5.00497 104.525 5.34561 104.275C5.54999 104.139 5.88608 103.934 6.35388 103.662C6.81714 103.389 7.21909 103.174 7.55972 103.015L7.66191 102.947C8.79736 101.811 10.0804 100.607 11.5111 99.3358C12.9417 98.0641 14.4564 96.7969 16.0551 95.5343C17.6584 94.2763 19.2843 93.084 20.933 91.9577C22.5771 90.8359 24.1826 89.848 25.7495 88.9942C27.3164 88.1449 28.7812 87.5045 30.1437 87.073C29.7122 86.6869 28.9742 86.4031 27.9296 86.2214C26.885 86.0397 25.7155 85.9489 24.4211 85.9489C23.0358 85.9489 21.6052 86.0443 20.1291 86.235C18.653 86.4303 17.2791 86.7028 16.0074 87.0526C14.7357 87.4068 13.7025 87.8337 12.9077 88.3333C12.1129 88.8329 11.7154 89.3893 11.7154 90.0024C11.7154 90.3658 11.9085 90.7745 12.2945 91.2287C12.3172 91.2514 12.3286 91.2855 12.3286 91.3309C12.3286 91.3536 12.3059 91.365 12.2605 91.365C12.1015 91.365 11.9766 91.3196 11.8858 91.2287C11.4316 90.7973 11.2045 90.2863 11.2045 89.6959C11.2045 89.1282 11.4043 88.5377 11.804 87.9246C12.1991 87.3114 12.7442 86.7324 13.4391 86.1874C14.1294 85.6423 14.9288 85.1995 15.8371 84.8589C16.9271 84.4501 18.1421 84.1504 19.4819 83.9596C20.8217 83.7643 22.1502 83.6667 23.4673 83.6667C24.9888 83.6667 26.4422 83.7916 27.8274 84.0414C28.3724 84.1322 28.9356 84.2957 29.5169 84.5319C30.0937 84.7726 30.5706 85.1019 30.9476 85.5197C31.32 85.9421 31.4835 86.4826 31.4381 87.1411C31.5062 87.2093 31.5403 87.2887 31.5403 87.3796C31.5403 87.4931 31.4835 87.5953 31.37 87.6861C31.3473 87.8451 31.3132 88.0041 31.2678 88.163C31.2224 88.322 31.1656 88.4923 31.0975 88.674C31.0294 88.8556 30.9612 88.9283 30.8931 88.892C30.825 88.8602 30.825 88.7875 30.8931 88.674C30.9839 88.4015 31.018 88.1517 30.9953 87.9246L30.8931 87.9927C28.713 88.9692 26.5784 90.0819 24.4892 91.3309C22.4 92.5799 20.4129 93.8743 18.5281 95.2141C16.6433 96.554 14.9129 97.8529 13.3369 99.111C11.7563 100.374 10.387 101.516 9.22882 102.538C9.84196 102.333 10.7685 102.174 12.0084 102.061C13.2438 101.947 14.5995 101.891 16.0756 101.891C17.3245 101.891 18.6031 101.941 19.9111 102.04C21.2146 102.145 22.4749 102.304 23.6921 102.517C24.9048 102.735 25.988 103.019 26.9418 103.369C27.8955 103.723 28.6563 104.155 29.224 104.663C29.7917 105.177 30.0756 105.774 30.0756 106.455C30.0756 106.841 29.9961 107.204 29.8371 107.545C29.7463 107.772 29.6441 107.886 29.5306 107.886ZM33.0391 106.591C32.1534 106.591 31.4881 106.369 31.043 105.924C30.6024 105.483 30.3821 104.911 30.3821 104.207C30.3821 103.775 30.4389 103.355 30.5525 102.947C30.666 102.538 30.7909 102.174 30.9272 101.856C30.7682 102.015 30.6138 102.156 30.4639 102.279C30.3186 102.406 30.2005 102.504 30.1096 102.572C30.0188 102.64 29.9393 102.674 29.8712 102.674C29.7804 102.674 29.7349 102.617 29.7349 102.504C29.7349 102.345 29.8485 102.163 30.0756 101.959C30.8704 101.3 31.4949 100.714 31.9491 100.201C32.4032 99.6923 32.8801 99.2223 33.3797 98.7908C34.22 98.0641 35.117 97.4964 36.0707 97.0876C37.0245 96.6789 37.9783 96.4745 38.932 96.4745C39.9312 96.4745 40.7147 96.7129 41.2824 97.1898C41.8501 97.6667 42.134 98.3707 42.134 99.3017C42.134 99.824 41.9796 100.426 41.6707 101.107C41.3664 101.788 40.885 102.492 40.2265 103.219C39.9539 103.514 39.6474 103.803 39.3067 104.084C38.9661 104.37 38.6709 104.582 38.4211 104.718C39.5338 104.604 40.5784 104.211 41.5549 103.539C42.5314 102.872 43.4057 102.208 44.1778 101.55C44.2913 101.482 44.3708 101.448 44.4162 101.448C44.5298 101.448 44.5866 101.504 44.5866 101.618C44.5866 101.709 44.5298 101.811 44.4162 101.925C43.4398 102.856 42.3883 103.639 41.262 104.275C40.1402 104.911 38.898 105.217 37.5354 105.195C36.7406 105.626 35.9617 105.967 35.1987 106.217C34.4402 106.466 33.7204 106.591 33.0391 106.591ZM34.5719 105.638C34.8899 105.638 35.2305 105.581 35.5938 105.467C35.9572 105.354 36.3205 105.206 36.6839 105.024C36.5476 105.024 36.4159 104.956 36.2887 104.82C36.1661 104.684 36.1048 104.502 36.1048 104.275C36.1048 103.821 36.2751 103.355 36.6157 102.878C36.9564 102.401 37.3765 101.993 37.8761 101.652C38.3757 101.311 38.8639 101.141 39.3408 101.141C39.6133 101.141 39.8676 101.214 40.1038 101.359C40.3445 101.509 40.4762 101.709 40.499 101.959C40.885 101.527 41.1507 101.062 41.296 100.562C41.4459 100.062 41.5209 99.597 41.5209 99.1655C41.5209 98.5751 41.3324 98.1254 40.9554 97.8166C40.583 97.5123 40.0788 97.3601 39.443 97.3601C38.8299 97.3601 38.1531 97.5759 37.4128 98.0073C36.6771 98.4388 35.9844 98.9952 35.335 99.6764C34.69 100.358 34.1564 101.096 33.734 101.891C33.3161 102.685 33.1072 103.446 33.1072 104.173C33.1072 105.149 33.5955 105.638 34.5719 105.638ZM54.1924 107.613C53.8972 107.5 53.6065 107.295 53.3204 107C53.0388 106.705 52.898 106.194 52.898 105.467C52.898 104.854 52.9979 104.211 53.1978 103.539C53.4067 102.872 53.6701 102.208 53.988 101.55C53.3976 102.299 52.7549 103.037 52.06 103.764C51.3697 104.491 50.6771 105.088 49.9822 105.556C49.2873 106.019 48.6469 106.251 48.061 106.251C47.5614 106.251 47.1458 106.114 46.8143 105.842C46.4873 105.569 46.3238 105.149 46.3238 104.582C46.3238 104.173 46.4033 103.73 46.5622 103.253C46.7212 102.776 47.0051 102.243 47.4138 101.652C47.8226 101.062 48.2699 100.476 48.7559 99.8944C49.2464 99.3176 49.6733 98.8248 50.0367 98.4161C50.2865 98.1209 50.4114 97.8824 50.4114 97.7008C50.4114 97.4737 50.2865 97.3601 50.0367 97.3601C49.7596 97.3601 49.3736 97.5418 48.8785 97.9051C48.3562 98.2912 47.7999 98.7613 47.2094 99.3154C46.619 99.874 46.0626 100.408 45.5403 100.916C45.018 101.43 44.5752 101.834 44.2119 102.129C44.1437 102.197 44.0756 102.231 44.0075 102.231C43.8939 102.231 43.8372 102.163 43.8372 102.027C43.8372 101.913 43.9394 101.766 44.1437 101.584C45.1429 100.721 45.9718 99.9308 46.6304 99.2132C47.2889 98.5001 47.9361 97.8938 48.572 97.3942C48.9126 97.1217 49.2623 96.9218 49.6211 96.7947C49.989 96.672 50.3296 96.6107 50.643 96.6107C51.1926 96.6107 51.6467 96.7697 52.0055 97.0876C52.3734 97.4055 52.5574 97.8484 52.5574 98.4161C52.5574 98.8476 52.4438 99.3017 52.2167 99.7786C51.9624 100.346 51.6263 100.907 51.2085 101.461C50.7906 102.02 50.3887 102.56 50.0026 103.083C49.7074 103.514 49.4917 103.866 49.3554 104.139C49.2192 104.411 49.151 104.616 49.151 104.752C49.151 104.934 49.2419 105.024 49.4236 105.024C49.6052 105.024 49.8664 104.922 50.207 104.718C50.5476 104.513 50.8996 104.252 51.263 103.934C51.5128 103.707 51.733 103.496 51.9238 103.301C52.1191 103.11 52.2599 102.969 52.3462 102.878C52.873 102.333 53.3976 101.747 53.9199 101.121C54.4422 100.498 54.8964 99.9262 55.2824 99.4039C55.5777 99.0179 55.8093 98.7227 55.9773 98.5183C56.1499 98.3139 56.3384 98.0982 56.5428 97.8711C56.9243 97.4396 57.3331 97.2125 57.7691 97.1898C58.0143 97.1898 58.3027 97.2398 58.6343 97.3397C58.9658 97.4441 59.2906 97.644 59.6085 97.9392C59.3814 98.2571 59.0453 98.6931 58.6002 99.2472C58.1597 99.8059 57.6828 100.419 57.1695 101.087C56.6609 101.759 56.1726 102.447 55.7048 103.151C55.2416 103.855 54.8601 104.513 54.5603 105.127C54.2696 105.74 54.1243 106.273 54.1243 106.728C54.1243 107.045 54.2128 107.295 54.39 107.477C54.4854 107.568 54.4854 107.62 54.39 107.634C54.3037 107.643 54.2378 107.636 54.1924 107.613ZM66.9934 106.319C66.4257 106.319 65.9783 106.16 65.6513 105.842C65.3198 105.524 65.154 105.093 65.154 104.547C65.154 104.207 65.2335 103.821 65.3924 103.389C65.5514 102.958 65.8012 102.515 66.1418 102.061C66.6641 101.357 67.1637 100.737 67.6406 100.201C68.1175 99.6696 68.4695 99.1882 68.6966 98.7567C68.9237 98.348 69.0372 98.03 69.0372 97.8029C69.0372 97.4623 68.8328 97.292 68.4241 97.292C68.0607 97.292 67.5452 97.4896 66.8776 97.8847C66.2054 98.2844 65.506 98.927 64.7793 99.8127C64.3705 100.312 63.905 100.896 63.3827 101.564C62.8604 102.236 62.4403 102.856 62.1224 103.423C61.9861 103.673 61.8567 103.928 61.734 104.186C61.6069 104.45 61.4184 104.888 61.1686 105.501C61.1005 105.66 60.9142 105.831 60.6099 106.012C60.3011 106.194 60.0558 106.285 59.8742 106.285C59.7379 106.285 59.6698 106.228 59.6698 106.114C59.6698 106.024 59.7039 105.91 59.772 105.774C59.8855 105.569 60.1421 104.922 60.5418 103.832C60.937 102.742 61.4411 101.459 62.0542 99.983C61.7136 100.346 61.3389 100.737 60.9301 101.155C60.5214 101.577 60.0672 101.981 59.5676 102.367C59.4768 102.458 59.3746 102.504 59.261 102.504C59.1248 102.504 59.0567 102.447 59.0567 102.333C59.0567 102.243 59.1588 102.118 59.3632 101.959C59.8855 101.504 60.4078 101.023 60.9301 100.514C61.4524 100.001 62.0202 99.3585 62.6333 98.5864C62.8377 98.0868 63.201 97.3647 63.7233 96.42C64.2456 95.4798 64.8701 94.4307 65.5968 93.2725C66.3235 92.1144 67.1297 90.9562 68.0153 89.7981C68.901 88.6399 69.8093 87.6067 70.7404 86.6983C71.5806 85.8808 72.4617 85.2563 73.3837 84.8248C74.3011 84.3934 75.1345 84.1776 75.8839 84.1776C76.5425 84.1776 77.0762 84.3366 77.4849 84.6545C77.8937 84.9724 78.0981 85.4834 78.0981 86.1874C78.0981 86.8913 77.905 87.6407 77.519 88.4355C77.1329 89.2303 76.7242 89.8662 76.2927 90.3431C75.3162 91.4331 74.1649 92.4323 72.8387 93.3407C71.5079 94.249 70.1159 95.0211 68.6625 95.657C68.6171 95.6797 68.5717 95.6956 68.5263 95.7046C68.4808 95.7183 68.4354 95.7251 68.39 95.7251C68.231 95.7251 68.1516 95.6683 68.1516 95.5548C68.1516 95.4185 68.2765 95.305 68.5263 95.2141C69.3892 94.8281 70.2703 94.3512 71.1696 93.7835C72.0643 93.2158 72.8977 92.6026 73.6698 91.9441C74.4419 91.2855 75.0891 90.6269 75.6114 89.9684C76.2246 89.1963 76.622 88.565 76.8036 88.0745C76.9853 87.5885 77.0762 87.1752 77.0762 86.8346C77.0762 86.3804 76.8264 86.1533 76.3268 86.1533C76.0997 86.1533 75.7704 86.26 75.3389 86.4735C74.9075 86.6915 74.3965 87.0389 73.8061 87.5158C72.8977 88.2425 71.9621 89.1282 70.9993 90.1728C70.0319 91.2174 69.0894 92.3528 68.172 93.5791C67.25 94.8054 66.3803 96.0544 65.5627 97.3261C64.7452 98.5978 64.0072 99.8354 63.3486 101.039C63.6211 100.653 63.905 100.26 64.2002 99.8604C64.4954 99.4652 64.7907 99.1087 65.0859 98.7908C65.7671 98.0414 66.437 97.4964 67.0956 97.1557C67.7542 96.8151 68.3446 96.6448 68.8669 96.6448C69.4573 96.6448 69.9342 96.8197 70.2976 97.1694C70.6609 97.5236 70.8426 97.996 70.8426 98.5864C70.8426 98.9043 70.7926 99.2154 70.6927 99.5197C70.5882 99.8286 70.4679 100.108 70.3316 100.358C70.1499 100.744 69.9115 101.198 69.6163 101.72C69.3211 102.243 69.0372 102.731 68.7647 103.185C68.2424 104.025 67.9812 104.627 67.9812 104.99C67.9812 105.195 68.0721 105.297 68.2538 105.297C68.4808 105.297 68.8555 105.138 69.3778 104.82C69.7866 104.57 70.2476 104.245 70.7608 103.846C71.2695 103.451 71.7804 103.037 72.2937 102.606C72.8023 102.174 73.2452 101.793 73.6221 101.461C73.9946 101.134 74.2375 100.914 74.3511 100.801C74.4873 100.664 74.5895 100.596 74.6577 100.596C74.7258 100.596 74.7598 100.63 74.7598 100.698C74.7598 100.812 74.6804 100.971 74.5214 101.175C73.931 101.788 73.1929 102.481 72.3073 103.253C71.4216 104.025 70.4225 104.775 69.3097 105.501C68.8782 105.796 68.4649 106.005 68.0698 106.128C67.6701 106.255 67.3113 106.319 66.9934 106.319ZM80.9594 95.8613C80.6414 95.8613 80.403 95.7591 80.244 95.5548C80.0851 95.3504 80.0056 95.1347 80.0056 94.9076C80.0056 94.4534 80.2213 94.0038 80.6528 93.5587C81.0843 93.1181 81.5385 92.8978 82.0153 92.8978C82.3333 92.8978 82.5717 93 82.7307 93.2044C82.8896 93.4088 82.9691 93.6245 82.9691 93.8516C82.9691 94.3285 82.7602 94.7827 82.3423 95.2141C81.92 95.6456 81.459 95.8613 80.9594 95.8613ZM75.7477 106.319C74.8166 106.319 74.1876 106.119 73.8606 105.719C73.529 105.324 73.3633 104.877 73.3633 104.377C73.3633 103.968 73.4314 103.576 73.5676 103.199C73.7039 102.826 73.8174 102.56 73.9083 102.401C74.0445 102.174 74.233 101.913 74.4737 101.618C74.7099 101.323 74.9756 101.005 75.2708 100.664C74.8166 101.05 74.392 101.425 73.9968 101.788C73.5972 102.152 73.2724 102.424 73.0226 102.606C72.9545 102.674 72.8864 102.708 72.8182 102.708C72.7274 102.708 72.682 102.651 72.682 102.538C72.682 102.356 72.8069 102.174 73.0567 101.993C73.6471 101.493 74.2216 100.948 74.7803 100.358C75.3344 99.7673 75.8612 99.2154 76.3608 98.7022C76.8604 98.1935 77.3032 97.837 77.6893 97.6326C78.0981 97.4055 78.4273 97.2579 78.6771 97.1898C78.9269 97.1217 79.1313 97.0876 79.2903 97.0876C79.5401 97.0876 79.7217 97.1262 79.8353 97.2034C79.9488 97.2852 79.9715 97.3715 79.9034 97.4623C79.5174 97.8484 79.1381 98.3412 78.7657 98.9407C78.3887 99.5447 78.0413 100.176 77.7234 100.835C77.4054 101.493 77.1511 102.118 76.9603 102.708C76.765 103.298 76.6674 103.798 76.6674 104.207C76.6674 104.775 76.8945 105.058 77.3487 105.058C77.7801 105.058 78.3433 104.859 79.0382 104.459C79.7286 104.064 80.4552 103.56 81.2183 102.947C81.9767 102.333 82.6852 101.732 83.3438 101.141C83.4346 101.05 83.5141 101.005 83.5823 101.005C83.6958 101.005 83.7594 101.062 83.773 101.175C83.7821 101.289 83.7526 101.368 83.6844 101.414C82.935 102.118 82.0903 102.849 81.1501 103.607C80.2054 104.37 79.263 105.013 78.3229 105.535C77.3782 106.058 76.5198 106.319 75.7477 106.319ZM87.8402 106.319C86.8637 106.319 86.2051 106.13 85.8645 105.753C85.5239 105.381 85.3535 104.968 85.3535 104.513C85.3535 103.923 85.5806 103.298 86.0348 102.64C86.3073 102.254 86.6139 101.816 86.9545 101.325C87.2952 100.839 87.6131 100.38 87.9083 99.9489C88.2035 99.5175 88.4079 99.2109 88.5214 99.0292C88.6804 98.8021 88.7758 98.6477 88.8076 98.566C88.8439 98.4888 88.8621 98.4047 88.8621 98.3139C88.8621 98.1776 88.7758 98.0459 88.6032 97.9188C88.4351 97.7961 88.1581 97.7348 87.772 97.7348C87.6585 97.7348 87.5608 97.7394 87.4791 97.7484C87.4019 97.7621 87.3179 97.7689 87.227 97.7689C87.0454 97.7689 86.9432 97.7575 86.9205 97.7348L86.8183 97.8711C86.1824 98.7113 85.5012 99.5356 84.7745 100.344C84.0478 101.148 83.253 101.891 82.39 102.572C82.2992 102.64 82.2311 102.674 82.1857 102.674C82.0948 102.674 82.0494 102.629 82.0494 102.538C82.0494 102.356 82.1857 102.152 82.4582 101.925C83.1621 101.334 83.8548 100.669 84.536 99.9285C85.2173 99.1927 85.8304 98.4161 86.3754 97.5986C86.1711 97.4623 86.0689 97.1898 86.0689 96.781C86.0689 96.1679 86.2619 95.5094 86.648 94.8054C86.9205 94.3285 87.2202 93.9697 87.5472 93.729C87.8788 93.4928 88.1694 93.3747 88.4192 93.3747C88.8961 93.3747 89.1346 93.6586 89.1346 94.2263C89.1346 94.5896 88.9983 95.0438 88.7258 95.5888C88.6123 95.8613 88.3897 96.2065 88.0582 96.6244C87.7312 97.0467 87.4087 97.3488 87.0908 97.5304C87.5677 97.3715 88.174 97.2625 88.9098 97.2034C89.6501 97.1489 90.27 97.1217 90.7696 97.1217C91.0648 97.1217 91.4282 97.2057 91.8596 97.3738C92.2911 97.5463 92.5068 97.8484 92.5068 98.2798C92.5068 98.5751 92.3706 98.893 92.0981 99.2336C92.03 99.3244 91.8483 99.5402 91.5531 99.8808C91.2579 100.221 90.9331 100.63 90.5789 101.107C90.2291 101.584 89.9067 102.061 89.6115 102.538C89.3162 102.969 89.0823 103.367 88.9098 103.73C88.7417 104.093 88.6577 104.4 88.6577 104.65C88.6577 105.013 88.8621 105.195 89.2708 105.195C89.7477 105.195 90.3836 104.968 91.1784 104.513C91.9732 104.059 92.8293 103.473 93.7467 102.756C94.6687 102.043 95.5158 101.3 96.2879 100.528C96.3787 100.437 96.4582 100.392 96.5263 100.392C96.6171 100.392 96.6626 100.449 96.6626 100.562C96.6626 100.698 96.6058 100.823 96.4922 100.937C95.6974 101.732 94.8163 102.542 93.8489 103.369C92.8861 104.2 91.8869 104.899 90.8514 105.467C89.8204 106.035 88.8166 106.319 87.8402 106.319ZM103.843 107.613C103.661 107.613 103.571 107.511 103.571 107.307C103.571 107.261 103.577 107.216 103.591 107.17C103.6 107.125 103.616 107.068 103.639 107C103.775 106.478 104.077 105.774 104.545 104.888C105.008 104.002 105.587 103.008 106.282 101.904C106.972 100.805 107.715 99.6764 108.51 98.5183C108.374 98.0414 108.317 97.6553 108.339 97.3601C108.362 97.133 108.517 96.8651 108.803 96.5562C109.084 96.2519 109.402 95.9908 109.757 95.7728C110.106 95.5593 110.383 95.4753 110.588 95.5207C111.473 94.3171 112.302 93.2158 113.074 92.2166C113.846 91.2174 114.5 90.4226 115.036 89.8321C115.568 89.2417 115.902 88.9465 116.038 88.9465C116.219 88.9465 116.356 89.026 116.447 89.1849C116.537 89.3439 116.583 89.4915 116.583 89.6277C116.583 89.6277 116.317 89.9616 115.786 90.6292C115.25 91.3014 114.557 92.1893 113.708 93.293C112.854 94.3921 111.95 95.6002 110.996 96.9173C111.019 96.94 111.03 96.9741 111.03 97.0195C111.03 97.0649 111.042 97.1103 111.065 97.1557L112.291 97.0536C113.449 96.9627 114.675 96.7515 115.97 96.42C117.264 96.093 118.536 95.6751 119.785 95.1664C121.034 94.6532 122.146 94.0673 123.123 93.4088C124.213 92.6594 125.117 91.8578 125.834 91.0039C126.547 90.1546 126.904 89.378 126.904 88.674C126.904 87.97 126.484 87.3841 125.644 86.9163C124.803 86.453 123.384 86.2214 121.386 86.2214C120.704 86.2214 119.864 86.3009 118.865 86.4599C117.866 86.6188 116.794 86.8346 115.649 87.1071C114.5 87.3796 113.365 87.702 112.243 88.0745C111.117 88.4514 110.095 88.8556 109.177 89.2871C108.255 89.7186 107.522 90.1614 106.977 90.6156C106.614 90.9335 106.489 91.1947 106.602 91.399C106.648 91.4672 106.67 91.5353 106.67 91.6034C106.67 91.6488 106.648 91.6715 106.602 91.6715C106.534 91.6715 106.443 91.6375 106.33 91.5694C105.966 91.3423 105.701 91.0516 105.533 90.6973C105.36 90.3476 105.274 90.0252 105.274 89.7299C105.274 89.4574 105.319 89.2758 105.41 89.1849C105.819 88.5945 106.496 88.0268 107.44 87.4818C108.38 86.9367 109.486 86.4372 110.758 85.983C112.03 85.5288 113.381 85.1314 114.811 84.7908C116.242 84.4501 117.646 84.189 119.022 84.0073C120.393 83.8256 121.647 83.7348 122.782 83.7348C123.713 83.7348 124.497 83.8029 125.133 83.9392C126.018 84.1208 126.768 84.5569 127.381 85.2472C127.994 85.9421 128.301 86.7891 128.301 87.7883C128.301 88.7194 127.933 89.7413 127.197 90.854C126.457 91.9668 125.189 93.0454 123.395 94.09C122.396 94.6805 121.249 95.23 119.955 95.7387C118.661 96.2519 117.35 96.6789 116.024 97.0195C114.693 97.3601 113.46 97.5645 112.325 97.6326C112.143 97.6553 111.962 97.6667 111.78 97.6667C111.598 97.6667 111.417 97.6667 111.235 97.6667C111.598 98.5751 112.173 99.5107 112.958 100.474C113.74 101.441 114.618 102.338 115.595 103.165C116.571 103.996 117.548 104.666 118.524 105.174C119.501 105.687 120.341 105.944 121.045 105.944C121.59 105.944 122.085 105.815 122.53 105.556C122.971 105.292 123.225 104.945 123.293 104.513C123.293 104.423 123.339 104.382 123.43 104.391C123.52 104.404 123.554 104.468 123.532 104.582C123.441 105.376 123.009 105.955 122.237 106.319C121.465 106.682 120.602 106.864 119.648 106.864C118.422 106.864 117.26 106.637 116.16 106.183C115.057 105.728 114.035 105.142 113.095 104.425C112.15 103.712 111.333 102.935 110.642 102.095C109.947 101.255 109.395 100.449 108.987 99.6764C108.01 101.107 107.109 102.481 106.282 103.798C105.451 105.115 104.865 106.205 104.524 107.068C104.479 107.227 104.384 107.359 104.238 107.463C104.088 107.563 103.957 107.613 103.843 107.613ZM130.889 107.647C129.481 107.647 128.244 107.5 127.176 107.204C126.109 106.909 125.348 106.58 124.894 106.217C123.759 105.331 123.191 104.309 123.191 103.151C123.191 102.174 123.618 101.191 124.472 100.201C125.321 99.2154 126.62 98.3071 128.369 97.4759C130.117 96.6493 132.32 95.9976 134.977 95.5207C136.112 95.3163 137.266 95.1574 138.438 95.0438C139.605 94.9303 140.779 94.8735 141.96 94.8735C142.959 94.8735 143.965 94.9189 144.978 95.0098C145.986 95.1006 146.979 95.2482 147.955 95.4526C148.273 95.5207 148.636 95.6047 149.045 95.7046C149.454 95.8091 149.874 95.9295 150.305 96.0657C152.19 94.1355 154.03 92.2166 155.824 90.309C157.618 88.4015 159.355 86.7891 161.035 85.472C162.216 84.541 163.318 83.9051 164.34 83.5645C165.361 83.2238 166.27 83.0535 167.065 83.0535C167.996 83.0535 168.763 83.1943 169.367 83.4759C169.967 83.762 170.357 83.9959 170.539 84.1776C170.607 84.2457 170.607 84.3139 170.539 84.382C170.471 84.4501 170.403 84.4501 170.335 84.382C170.221 84.2457 169.949 84.0981 169.517 83.9392C169.086 83.7802 168.529 83.7007 167.848 83.7007C167.008 83.7007 166.02 83.8938 164.885 84.2798C163.749 84.6659 162.489 85.3925 161.104 86.4599C159.4 87.7997 157.715 89.3371 156.049 91.072C154.377 92.8115 152.679 94.5556 150.953 96.3042C151.838 96.6221 152.651 97.0536 153.392 97.5986C154.127 98.1436 154.552 98.8135 154.666 99.6083V99.7446C154.666 99.8354 154.643 99.8808 154.597 99.8808C154.529 99.8808 154.461 99.8127 154.393 99.6764C154.302 99.4266 154.048 99.2109 153.63 99.0292C153.208 98.8476 152.724 98.7 152.179 98.5864C151.634 98.4729 151.112 98.382 150.612 98.3139C150.112 98.2458 149.738 98.2004 149.488 98.1776L149.113 98.1436C147.228 99.9603 145.282 101.634 143.275 103.165C141.263 104.7 139.133 105.853 136.885 106.625C135.817 106.989 134.779 107.25 133.771 107.409C132.758 107.568 131.798 107.647 130.889 107.647ZM157.22 109.316C156.198 108.59 155.449 107.715 154.972 106.693C154.495 105.672 154.257 104.57 154.257 103.389C154.257 102.208 154.461 101.028 154.87 99.8467C155.279 98.6432 155.876 97.3942 156.662 96.0998C157.443 94.8054 158.299 93.5382 159.23 92.2983C160.161 91.063 161.065 89.9275 161.942 88.892C162.814 87.861 163.552 87.0049 164.156 86.3236C164.755 85.6423 165.112 85.2222 165.225 85.0633C165.361 84.8816 165.464 84.7908 165.532 84.7908C165.623 84.7908 165.691 84.8634 165.736 85.0088C165.782 85.1586 165.804 85.3244 165.804 85.5061C165.804 85.8694 165.748 86.1306 165.634 86.2895C165.044 87.0389 164.34 87.9927 163.522 89.1509C162.705 90.309 161.876 91.5966 161.035 93.0136C160.195 94.4352 159.412 95.8954 158.685 97.3942C157.958 98.893 157.375 100.358 156.934 101.788C156.489 103.219 156.267 104.525 156.267 105.706C156.267 106.387 156.357 107.011 156.539 107.579C156.721 108.147 157.016 108.646 157.425 109.078C157.447 109.101 157.459 109.135 157.459 109.18C157.459 109.226 157.436 109.271 157.391 109.316C157.345 109.362 157.288 109.362 157.22 109.316ZM130.992 107.068C131.832 107.068 132.74 106.996 133.717 106.85C134.693 106.7 135.704 106.466 136.748 106.148C138.701 105.535 140.643 104.491 142.573 103.015C144.503 101.539 146.4 99.8922 148.262 98.0755C147.966 98.0527 147.671 98.0414 147.376 98.0414C147.081 98.0414 146.774 98.0414 146.456 98.0414C144.867 98.0414 143.216 98.1209 141.504 98.2798C139.787 98.4388 138.156 98.6659 136.612 98.9611C134.114 99.3926 132.077 99.9308 130.501 100.576C128.921 101.225 127.762 101.902 127.027 102.606C126.286 103.31 125.916 103.98 125.916 104.616C125.916 105.229 126.223 105.762 126.836 106.217C127.154 106.444 127.676 106.644 128.403 106.816C129.129 106.984 129.992 107.068 130.992 107.068ZM157.391 116.947C156.096 116.947 155.086 116.606 154.359 115.925C153.632 115.243 153.269 114.324 153.269 113.166C153.269 112.439 153.421 111.639 153.725 110.767C154.034 109.891 154.507 108.964 155.142 107.988C155.846 106.898 156.698 105.853 157.697 104.854C158.696 103.855 159.768 102.924 160.913 102.061C162.062 101.198 163.193 100.449 164.306 99.8127C164.51 98.2912 164.975 96.7583 165.702 95.2141C166.429 93.6699 167.342 92.187 168.441 90.7655C169.544 89.3484 170.759 88.0722 172.086 86.9367C173.416 85.8013 174.774 84.8816 176.16 84.1776C177.409 83.5418 178.669 83.2238 179.941 83.2238C181.144 83.2238 182.2 83.5418 183.108 84.1776C184.017 84.8135 184.585 85.7786 184.812 87.073C184.834 87.1865 184.85 87.3114 184.859 87.4477C184.873 87.5839 184.88 87.7202 184.88 87.8565C184.88 89.0373 184.562 90.4157 183.926 91.9917C183.29 93.5723 182.416 95.2596 181.303 97.0536C180.19 98.8476 178.901 100.657 177.434 102.483C175.971 104.314 174.411 106.064 172.753 107.736C171.095 109.403 169.408 110.906 167.691 112.246C165.979 113.586 164.306 114.664 162.67 115.482C161.649 115.981 160.695 116.352 159.809 116.592C158.924 116.828 158.117 116.947 157.391 116.947ZM158.447 115.686C158.924 115.686 159.439 115.625 159.993 115.502C160.552 115.375 161.115 115.198 161.683 114.971C163.136 114.358 164.657 113.456 166.247 112.266C167.837 111.072 169.42 109.687 170.996 108.111C172.576 106.53 174.064 104.861 175.458 103.103C176.857 101.341 178.101 99.5742 179.191 97.8029C180.281 96.0317 181.137 94.3512 181.76 92.7616C182.386 91.172 182.7 89.7754 182.7 88.5718C182.7 87.4591 182.427 86.5552 181.882 85.8603C181.337 85.17 180.497 84.8248 179.361 84.8248C178.612 84.8248 177.726 84.9951 176.705 85.3358C174.638 86.0397 172.826 87.0775 171.268 88.4492C169.715 89.8253 168.461 91.4263 167.507 93.2521C166.554 95.0824 165.941 97.0308 165.668 99.0974C166.735 98.5751 167.819 98.1595 168.918 97.8506C170.021 97.5463 171.107 97.3942 172.174 97.3942C172.31 97.3942 172.451 97.3942 172.597 97.3942C172.746 97.3942 172.889 97.4055 173.026 97.4283C173.639 97.4737 174.161 97.6258 174.593 97.8847C175.024 98.1481 175.297 98.5069 175.41 98.9611C175.456 99.0519 175.478 99.1246 175.478 99.1791C175.478 99.2382 175.478 99.2904 175.478 99.3358C175.478 99.4039 175.456 99.438 175.41 99.438C175.387 99.438 175.347 99.4266 175.288 99.4039C175.233 99.3812 175.16 99.3585 175.07 99.3358C174.979 99.3131 174.876 99.2949 174.763 99.2813C174.649 99.2722 174.536 99.2677 174.422 99.2677C173.355 99.2677 172.042 99.6128 170.485 100.303C168.931 100.998 167.36 101.856 165.77 102.878C165.929 103.242 166.111 103.503 166.315 103.662C166.52 103.821 166.735 103.912 166.962 103.934C167.121 103.934 167.201 104.002 167.201 104.139C167.201 104.252 167.076 104.309 166.826 104.309C166.735 104.309 166.615 104.298 166.465 104.275C166.32 104.252 166.145 104.218 165.941 104.173C165.532 104.059 165.18 103.821 164.885 103.457C163.499 104.389 162.137 105.388 160.797 106.455C159.457 107.522 158.276 108.715 157.254 110.032C156.687 110.781 156.271 111.451 156.008 112.041C155.749 112.632 155.619 113.154 155.619 113.608C155.619 114.312 155.885 114.835 156.416 115.175C156.952 115.516 157.629 115.686 158.447 115.686ZM188.899 108.056C186.878 108.056 185.084 107.813 183.517 107.327C181.95 106.837 180.894 106.058 180.349 104.99C180.236 104.763 180.179 104.616 180.179 104.547C180.179 104.502 180.202 104.479 180.247 104.479C180.338 104.479 180.497 104.559 180.724 104.718C181.587 105.308 182.688 105.694 184.028 105.876C185.368 106.058 186.708 106.148 188.048 106.148C189.342 106.148 190.743 106.035 192.251 105.808C193.763 105.581 195.285 105.245 196.816 104.8C198.351 104.359 199.845 103.798 201.298 103.117C202.752 102.436 204.08 101.641 205.284 100.732C207.169 99.3017 208.542 97.9165 209.405 96.5767C210.268 95.2368 210.7 93.9765 210.7 92.7956C210.7 91.5012 210.223 90.3544 209.269 89.3552C208.315 88.3561 206.991 87.5771 205.297 87.0185C203.608 86.4644 201.628 86.1874 199.357 86.1874C198.539 86.1874 197.699 86.2214 196.836 86.2895C195.383 86.4258 193.934 86.6688 192.489 87.0185C191.05 87.3728 189.676 87.811 188.368 88.3333C187.064 88.8556 185.902 89.4234 184.88 90.0365C183.858 90.6496 183.056 91.2787 182.475 91.9236C181.898 92.5731 181.61 93.2044 181.61 93.8175C181.61 94.2036 181.746 94.5896 182.018 94.9757C182.087 95.0438 182.121 95.1347 182.121 95.2482C182.121 95.339 182.087 95.4003 182.018 95.4321C181.95 95.4685 181.859 95.4412 181.746 95.3504C181.542 95.1233 181.349 94.7645 181.167 94.274C180.985 93.788 180.894 93.2385 180.894 92.6253C180.894 92.0122 181.035 91.3695 181.317 90.6973C181.603 90.0297 182.109 89.412 182.836 88.8443C183.699 88.163 184.766 87.5204 186.038 86.9163C187.31 86.3168 188.699 85.7899 190.207 85.3358C191.72 84.8816 193.275 84.5296 194.874 84.2798C196.477 84.03 198.062 83.9051 199.629 83.9051C202.332 83.9051 204.55 84.3071 206.285 85.111C208.025 85.9194 209.315 86.9867 210.155 88.3129C210.995 89.6436 211.415 91.1038 211.415 92.6934C211.415 94.1468 211.068 95.6343 210.373 97.1557C209.682 98.6772 208.672 100.119 207.341 101.482C206.015 102.844 204.375 104.025 202.422 105.024C201.173 105.638 199.788 106.171 198.267 106.625C196.745 107.08 195.178 107.432 193.566 107.681C191.954 107.931 190.398 108.056 188.899 108.056ZM185.459 103.457C185.3 103.457 185.22 103.298 185.22 102.981C185.22 102.663 185.395 102.14 185.745 101.414C186.099 100.687 186.572 99.8467 187.162 98.893C187.752 97.9392 188.404 96.9332 189.117 95.875C189.835 94.8213 190.557 93.788 191.284 92.7752C192.01 91.7669 192.692 90.8472 193.327 90.0161C193.963 89.1895 194.502 88.5309 194.942 88.0404C195.387 87.5544 195.666 87.3114 195.78 87.3114H196.087C196.336 87.3114 196.461 87.3682 196.461 87.4818C196.461 87.5953 196.37 87.7429 196.189 87.9246C195.417 88.7648 194.604 89.7186 193.75 90.7859C192.901 91.8532 192.056 92.9728 191.216 94.1445C190.375 95.3118 189.585 96.4631 188.845 97.5986C188.109 98.734 187.469 99.79 186.924 100.766C186.379 101.743 185.981 102.56 185.731 103.219C185.663 103.378 185.572 103.457 185.459 103.457ZM215.871 107.647C214.463 107.647 213.225 107.5 212.158 107.204C211.09 106.909 210.33 106.58 209.875 106.217C208.74 105.331 208.172 104.309 208.172 103.151C208.172 102.174 208.599 101.191 209.453 100.201C210.302 99.2154 211.601 98.3071 213.35 97.4759C215.098 96.6493 217.301 95.9976 219.958 95.5207C221.094 95.3163 222.247 95.1574 223.419 95.0438C224.586 94.9303 225.76 94.8735 226.941 94.8735C227.94 94.8735 228.946 94.9189 229.959 95.0098C230.967 95.1006 231.96 95.2482 232.936 95.4526C233.254 95.5207 233.618 95.6047 234.026 95.7046C234.435 95.8091 234.855 95.9295 235.287 96.0657C237.171 94.1355 239.011 92.2166 240.805 90.309C242.599 88.4015 244.336 86.7891 246.017 85.472C247.197 84.541 248.299 83.9051 249.321 83.5645C250.343 83.2238 251.251 83.0535 252.046 83.0535C252.977 83.0535 253.744 83.1943 254.349 83.4759C254.948 83.762 255.339 83.9959 255.52 84.1776C255.588 84.2457 255.588 84.3139 255.52 84.382C255.452 84.4501 255.384 84.4501 255.316 84.382C255.202 84.2457 254.93 84.0981 254.498 83.9392C254.067 83.7802 253.511 83.7007 252.829 83.7007C251.989 83.7007 251.001 83.8938 249.866 84.2798C248.73 84.6659 247.47 85.3925 246.085 86.4599C244.382 87.7997 242.697 89.3371 241.03 91.072C239.358 92.8115 237.66 94.5556 235.934 96.3042C236.82 96.6221 237.632 97.0536 238.373 97.5986C239.109 98.1436 239.533 98.8135 239.647 99.6083V99.7446C239.647 99.8354 239.624 99.8808 239.579 99.8808C239.511 99.8808 239.442 99.8127 239.374 99.6764C239.283 99.4266 239.029 99.2109 238.611 99.0292C238.189 98.8476 237.705 98.7 237.16 98.5864C236.615 98.4729 236.093 98.382 235.593 98.3139C235.094 98.2458 234.719 98.2004 234.469 98.1776L234.094 98.1436C232.21 99.9603 230.263 101.634 228.256 103.165C226.244 104.7 224.114 105.853 221.866 106.625C220.798 106.989 219.761 107.25 218.752 107.409C217.74 107.568 216.779 107.647 215.871 107.647ZM242.202 109.316C241.18 108.59 240.43 107.715 239.953 106.693C239.476 105.672 239.238 104.57 239.238 103.389C239.238 102.208 239.442 101.028 239.851 99.8467C240.26 98.6432 240.857 97.3942 241.643 96.0998C242.424 94.8054 243.28 93.5382 244.211 92.2983C245.142 91.063 246.046 89.9275 246.923 88.892C247.795 87.861 248.533 87.0049 249.137 86.3236C249.736 85.6423 250.093 85.2222 250.206 85.0633C250.343 84.8816 250.445 84.7908 250.513 84.7908C250.604 84.7908 250.672 84.8634 250.717 85.0088C250.763 85.1586 250.785 85.3244 250.785 85.5061C250.785 85.8694 250.729 86.1306 250.615 86.2895C250.025 87.0389 249.321 87.9927 248.503 89.1509C247.686 90.309 246.857 91.5966 246.017 93.0136C245.176 94.4352 244.393 95.8954 243.666 97.3942C242.94 98.893 242.356 100.358 241.915 101.788C241.47 103.219 241.248 104.525 241.248 105.706C241.248 106.387 241.339 107.011 241.52 107.579C241.702 108.147 241.997 108.646 242.406 109.078C242.429 109.101 242.44 109.135 242.44 109.18C242.44 109.226 242.417 109.271 242.372 109.316C242.326 109.362 242.27 109.362 242.202 109.316ZM215.973 107.068C216.813 107.068 217.721 106.996 218.698 106.85C219.674 106.7 220.685 106.466 221.729 106.148C223.682 105.535 225.624 104.491 227.554 103.015C229.485 101.539 231.381 99.8922 233.243 98.0755C232.948 98.0527 232.652 98.0414 232.357 98.0414C232.062 98.0414 231.755 98.0414 231.438 98.0414C229.848 98.0414 228.197 98.1209 226.485 98.2798C224.768 98.4388 223.137 98.6659 221.593 98.9611C219.095 99.3926 217.058 99.9308 215.482 100.576C213.902 101.225 212.744 101.902 212.008 102.606C211.267 103.31 210.897 103.98 210.897 104.616C210.897 105.229 211.204 105.762 211.817 106.217C212.135 106.444 212.657 106.644 213.384 106.816C214.111 106.984 214.974 107.068 215.973 107.068ZM253.579 107.613C252.398 107.613 251.319 107.352 250.343 106.83C249.366 106.307 248.59 105.558 248.013 104.582C247.431 103.605 247.141 102.436 247.141 101.073C247.141 100.051 247.341 98.9202 247.74 97.6803C248.135 96.445 248.764 95.1347 249.627 93.7494C250.49 92.3869 251.474 91.1379 252.577 90.0024C253.676 88.867 254.789 87.9064 255.915 87.1207C257.037 86.3395 258.052 85.8013 258.961 85.5061C259.71 85.2336 260.482 85.0973 261.277 85.0973C262.231 85.0973 263.06 85.3698 263.764 85.9148C264.468 86.4599 264.82 87.3682 264.82 88.6399C264.82 89.0714 264.774 89.496 264.683 89.9139C264.592 90.3363 264.513 90.6496 264.445 90.854C264.422 90.9903 264.377 91.0584 264.309 91.0584C264.172 91.0584 264.127 90.9335 264.172 90.6837C264.218 90.4793 264.259 90.2908 264.295 90.1183C264.327 89.9502 264.343 89.7981 264.343 89.6618C264.343 89.1168 264.184 88.7239 263.866 88.4832C263.548 88.247 263.116 88.129 262.571 88.129C261.799 88.129 260.88 88.3333 259.812 88.7421C258.745 89.1509 257.628 89.7118 256.46 90.4248C255.289 91.1424 254.18 91.9486 253.136 92.8433C252.091 93.7426 251.217 94.6805 250.513 95.657C249.627 96.8832 248.969 98.0414 248.537 99.1314C248.106 100.221 247.89 101.209 247.89 102.095C247.89 103.276 248.272 104.218 249.035 104.922C249.793 105.626 250.899 105.978 252.352 105.978C253.011 105.978 253.726 105.903 254.498 105.753C255.27 105.608 256.111 105.376 257.019 105.058C258.359 104.582 259.717 103.9 261.093 103.015C262.465 102.129 263.695 101.016 264.786 99.6764C265.807 98.4047 266.716 96.8446 267.511 94.9961C268.305 93.1431 268.703 91.0471 268.703 88.708C268.703 87.4591 268.596 86.4985 268.383 85.8263C268.165 85.1586 267.903 84.6886 267.599 84.4161C267.29 84.1436 267 84.0073 266.727 84.0073C266.636 84.0073 266.523 84.03 266.386 84.0754C266.364 84.0754 266.348 84.08 266.339 84.0891C266.325 84.1027 266.307 84.1095 266.284 84.1095C266.216 84.1095 266.182 84.0754 266.182 84.0073C266.182 83.8938 266.262 83.8029 266.421 83.7348C266.602 83.6667 266.807 83.6326 267.034 83.6326C267.465 83.6326 267.908 83.7802 268.362 84.0754C268.816 84.3706 269.209 84.8702 269.541 85.5742C269.868 86.2782 270.031 87.232 270.031 88.4355C270.031 90.116 269.766 91.6874 269.234 93.1499C268.698 94.6169 268.033 95.9635 267.238 97.1898C266.443 98.4161 265.66 99.5175 264.888 100.494C264.07 101.539 263.037 102.61 261.788 103.71C260.539 104.813 259.233 105.728 257.871 106.455C257.167 106.841 256.447 107.132 255.711 107.327C254.971 107.518 254.26 107.613 253.579 107.613ZM284.713 110.304C283.6 110.304 282.832 110.054 282.41 109.555C281.992 109.055 281.783 108.431 281.783 107.681C281.783 106.955 281.919 106.171 282.192 105.331C282.464 104.491 282.787 103.689 283.159 102.926C283.536 102.168 283.85 101.55 284.099 101.073C281.783 104.093 279.648 106.08 277.696 107.034C277.082 107.329 276.492 107.477 275.924 107.477C275.016 107.477 274.305 107.148 273.792 106.489C273.283 105.831 273.029 105.058 273.029 104.173C273.029 104.059 273.029 103.946 273.029 103.832C273.029 103.719 273.04 103.616 273.063 103.526C273.222 102.481 273.544 101.346 274.03 100.119C274.521 98.893 275.073 97.6485 275.686 96.3859C276.299 95.1278 276.905 93.9016 277.505 92.7071C278.109 91.5171 278.604 90.4157 278.99 89.4029C279.376 88.3947 279.569 87.5499 279.569 86.8686C279.569 86.0738 279.335 85.5174 278.867 85.1995C278.404 84.8816 277.798 84.7226 277.048 84.7226C276.322 84.7226 275.515 84.8475 274.63 85.0973C273.744 85.3471 272.859 85.6582 271.973 86.0307C271.087 86.4076 270.286 86.8005 269.568 87.2093C268.855 87.618 268.294 87.9814 267.885 88.2993C267.726 88.4355 267.556 88.5037 267.374 88.5037C267.147 88.5037 266.954 88.3606 266.795 88.0745C266.636 87.7929 266.557 87.4704 266.557 87.1071C266.557 86.8118 266.614 86.5212 266.727 86.235C266.841 85.9535 267.011 85.7218 267.238 85.5401C267.715 85.1541 268.453 84.7839 269.452 84.4297C270.451 84.08 271.569 83.7916 272.804 83.5645C274.044 83.3374 275.254 83.2238 276.435 83.2238C277.502 83.2238 278.479 83.3306 279.365 83.544C280.25 83.762 280.966 84.1254 281.511 84.6341C282.056 85.1473 282.328 85.8354 282.328 86.6983C282.328 86.9708 282.294 87.266 282.226 87.5839C282.09 88.2198 281.794 89.026 281.34 90.0024C280.886 90.9789 280.346 92.0462 279.719 93.2044C279.097 94.3626 278.456 95.5366 277.798 96.7265C277.139 97.921 276.537 99.0633 275.992 100.153C275.447 101.243 275.039 102.208 274.766 103.049C274.539 103.707 274.425 104.332 274.425 104.922C274.425 105.467 274.544 105.915 274.78 106.264C275.02 106.619 275.391 106.796 275.89 106.796C276.412 106.796 277.06 106.58 277.832 106.148C278.922 105.558 280.012 104.695 281.102 103.56C282.192 102.424 283.259 101.146 284.304 99.7241C285.348 98.3071 286.352 96.8605 287.315 95.3845C288.282 93.9084 289.186 92.505 290.026 91.1742C290.867 89.848 291.605 88.7194 292.241 87.7883C292.581 87.3114 292.949 86.9822 293.344 86.8005C293.744 86.6188 294.091 86.528 294.387 86.528C294.659 86.528 294.857 86.5779 294.979 86.6779C295.106 86.7823 295.102 86.9027 294.966 87.0389C294.58 87.425 294.046 88.0835 293.365 89.0146C292.683 89.9457 291.927 91.0471 291.096 92.3188C290.269 93.5905 289.447 94.953 288.63 96.4064C287.812 97.8597 287.056 99.2949 286.361 100.712C285.671 102.134 285.115 103.462 284.692 104.697C284.274 105.937 284.065 106.977 284.065 107.818C284.065 108.317 284.156 108.744 284.338 109.098C284.52 109.448 284.803 109.646 285.189 109.691L285.428 109.725H285.53C285.803 109.725 286.041 109.623 286.245 109.419C286.291 109.373 286.348 109.35 286.416 109.35C286.461 109.35 286.484 109.38 286.484 109.439C286.484 109.493 286.427 109.555 286.314 109.623C286.155 109.759 285.916 109.907 285.598 110.066C285.28 110.225 284.985 110.304 284.713 110.304ZM293.296 93.545C293.16 93.545 293.047 93.4996 292.956 93.4088C292.547 93.1363 292.211 92.7548 291.948 92.2643C291.689 91.7783 291.559 91.2514 291.559 90.6837C291.559 90.116 291.718 89.5483 292.036 88.9805C292.354 88.4128 292.888 87.9132 293.637 87.4818C294.841 86.7778 296.242 86.1805 297.841 85.69C299.444 85.2041 301.09 84.8248 302.78 84.5523C304.474 84.2798 306.07 84.1436 307.569 84.1436C308.159 84.1436 308.857 84.2003 309.661 84.3139C310.469 84.4274 311.252 84.6318 312.011 84.927C312.774 85.2222 313.405 85.6242 313.905 86.1329C314.404 86.6461 314.654 87.3001 314.654 88.0949C314.654 88.1857 314.654 88.2698 314.654 88.347C314.654 88.4287 314.643 88.515 314.62 88.6058C314.62 88.8102 314.563 88.9124 314.45 88.9124C314.382 88.9124 314.348 88.8556 314.348 88.7421C314.348 88.674 314.352 88.6059 314.361 88.5377C314.375 88.4696 314.382 88.4015 314.382 88.3333C314.382 87.6748 313.887 87.1979 312.897 86.9027C311.911 86.6075 310.669 86.4599 309.17 86.4599C307.876 86.4599 306.468 86.5552 304.946 86.746C303.425 86.9413 301.919 87.2093 300.429 87.5499C298.944 87.8905 297.588 88.2811 296.362 88.7217C295.136 89.1668 294.153 89.655 293.412 90.1864C292.677 90.7223 292.309 91.2741 292.309 91.8419C292.309 92.3642 292.672 92.8751 293.399 93.3747C293.444 93.3974 293.467 93.4315 293.467 93.4769C293.467 93.5223 293.41 93.545 293.296 93.545ZM296.124 111.19C296.01 111.19 295.953 111.065 295.953 110.815C295.953 110.588 296.022 110.27 296.158 109.861C296.317 109.43 296.548 108.896 296.853 108.26C297.162 107.625 297.532 106.909 297.963 106.114C297.395 106.16 296.85 106.235 296.328 106.339C295.806 106.439 295.306 106.557 294.829 106.693C294.284 106.83 293.71 107.03 293.106 107.293C292.506 107.552 291.927 107.79 291.369 108.008C290.814 108.222 290.333 108.329 289.924 108.329C289.629 108.329 289.413 108.272 289.277 108.158C289.118 108.045 289.039 107.795 289.039 107.409C289.039 107.068 289.168 106.664 289.427 106.196C289.69 105.733 290.167 105.274 290.858 104.82C291.552 104.366 292.558 103.98 293.876 103.662C294.375 103.526 294.982 103.423 295.695 103.355C296.412 103.287 297.191 103.253 298.031 103.253C298.281 103.253 298.535 103.253 298.794 103.253C299.058 103.253 299.314 103.264 299.564 103.287C300.382 101.879 301.261 100.419 302.201 98.9066C303.145 97.3987 304.083 95.9295 305.014 94.4988C305.945 93.0681 306.801 91.7783 307.583 90.6292C308.368 89.4847 309.016 88.5763 309.524 87.9041C310.037 87.2365 310.351 86.9027 310.464 86.9027H310.771C310.975 86.9027 311.078 86.9708 311.078 87.1071C311.078 87.2433 310.953 87.4704 310.703 87.7883C309.681 89.1282 308.568 90.6724 307.365 92.4209C306.161 94.1695 304.958 95.9862 303.754 97.8711C302.55 99.7559 301.426 101.584 300.382 103.355C301.676 103.469 302.902 103.712 304.061 104.084C305.219 104.461 306.166 104.99 306.901 105.672C307.642 106.353 308.012 107.227 308.012 108.294C308.012 108.908 307.921 109.214 307.739 109.214C307.626 109.214 307.592 109.101 307.637 108.874C307.773 108.283 307.49 107.779 306.786 107.361C306.082 106.939 305.128 106.614 303.924 106.387C302.721 106.16 301.426 106.046 300.041 106.046C299.837 106.046 299.632 106.046 299.428 106.046C299.224 106.046 299.019 106.058 298.815 106.08C298.315 106.989 297.854 107.847 297.432 108.656C297.014 109.459 296.68 110.179 296.43 110.815C296.317 111.065 296.215 111.19 296.124 111.19Z" fill="black"/>
</g>
</g>
</g>
</g>
</g>
</g>
</g>
</g>
</g>
<defs>
<clipPath id="clip0_278_249">
<rect width="319.489" height="200" fill="white"/>
</clipPath>
<clipPath id="clip1_278_249">
<rect width="318.968" height="199.355" fill="white" transform="translate(0.260559 0.322571)"/>
</clipPath>
<clipPath id="clip2_278_249">
<rect width="318.968" height="199.355" fill="white" transform="translate(0.260559 0.322571)"/>
</clipPath>
<clipPath id="clip3_278_249">
<rect width="318.968" height="37.9806" fill="white" transform="translate(0.260559 81.0097)"/>
</clipPath>
<clipPath id="clip4_278_249">
<rect width="318.968" height="37.9806" fill="white" transform="translate(0.260559 81.0097)"/>
</clipPath>
<clipPath id="clip5_278_249">
<rect width="318.968" height="37.9806" fill="white" transform="translate(0.260559 81.0097)"/>
</clipPath>
<clipPath id="clip6_278_249">
<rect width="318.968" height="37.9806" fill="white" transform="translate(0.260559 81.0097)"/>
</clipPath>
<clipPath id="clip7_278_249">
<rect width="318.968" height="37.9806" fill="white" transform="translate(0.260559 81.0097)"/>
</clipPath>
<clipPath id="clip8_278_249">
<rect width="318.968" height="37.9806" fill="white" transform="translate(0.260559 81.0097)"/>
</clipPath>
<clipPath id="clip9_278_249">
<rect width="318.968" height="37.9806" fill="white" transform="translate(0.260559 81.0097)"/>
</clipPath>
<clipPath id="clip10_278_249">
<rect width="318.968" height="37.9806" fill="white" transform="translate(0.260559 81.0097)"/>
</clipPath>
<clipPath id="clip11_278_249">
<rect width="318.968" height="37.9806" fill="white" transform="translate(0.260559 81.0097)"/>
</clipPath>
<clipPath id="clip12_278_249">
<rect width="318.968" height="37.9806" fill="white" transform="translate(0.260559 81.0097)"/>
</clipPath>
<clipPath id="clip13_278_249">
<rect width="318.968" height="37.9806" fill="white" transform="translate(0.260559 81.0097)"/>
</clipPath>
<clipPath id="clip14_278_249">
<rect width="318.968" height="37.9806" fill="white" transform="translate(0.260559 81.0097)"/>
</clipPath>
<clipPath id="clip15_278_249">
<rect width="318.968" height="37.9806" fill="white" transform="translate(0.260559 81.0097)"/>
</clipPath>
</defs>
</svg>
